<svg xmlns="http://www.w3.org/2000/svg" viewBox="0 0 21.73 16.93"><defs><style>.cls-1,.cls-2{fill:none;stroke-linejoin:round;}.cls-1{stroke:#1e66af;}.cls-2{stroke:#fdc511;}</style></defs><g id="Слой_2" data-name="Слой 2"><g id="Слой_1-2" data-name="Слой 1"><path class="cls-1" d="M16.3,10.42A5.43,5.43,0,1,1,10.87,5,5.44,5.44,0,0,1,16.3,10.42Z"/><path class="cls-2" d="M13.79,10.42a2.93,2.93,0,1,1-2.92-2.93A2.93,2.93,0,0,1,13.79,10.42Z"/><path class="cls-1" d="M20,16a.48.48,0,0,1-.1.29.36.36,0,0,1-.3.11H17.73a.33.33,0,0,1-.29-.12.41.41,0,0,1-.11-.29l.27-4.24A.4.4,0,0,1,18,11.4h1.3a.39.39,0,0,1,.41.38L20,16Z"/><line class="cls-1" x1="18" y1="11.4" x2="19.32" y2="11.4"/><path class="cls-1" d="M18.66.5c-1.42,0-2.57,2.41-2.57,3.8A2.56,2.56,0,0,0,18,6.78h1.32A2.57,2.57,0,0,0,21.23,4.3C21.23,2.91,20.08.5,18.66.5Z"/><line class="cls-1" x1="18.66" y1="7.75" x2="18.66" y2="10.42"/><path class="cls-1" d="M4.4,16a.5.5,0,0,1-.11.29.36.36,0,0,1-.29.11H2.15a.34.34,0,0,1-.3-.12A.53.53,0,0,1,1.74,16L2,11.78a.39.39,0,0,1,.4-.38h1.3a.4.4,0,0,1,.41.38L4.4,16Z"/><path class="cls-1" d="M.5,4.3A2.57,2.57,0,0,0,2.42,6.78H3.73A2.57,2.57,0,0,0,5.65,4.3Z"/><line class="cls-1" x1="0.5" y1="0.5" x2="0.5" y2="3.4"/><line class="cls-1" x1="0.5" y1="0.5" x2="0.5" y2="2.82"/><line class="cls-1" x1="2.92" y1="0.5" x2="2.92" y2="3.4"/><line class="cls-1" x1="2.92" y1="0.5" x2="2.92" y2="2.82"/><line class="cls-1" x1="5.34" y1="0.5" x2="5.34" y2="3.4"/><line class="cls-1" x1="5.34" y1="0.5" x2="5.34" y2="2.82"/><line class="cls-1" x1="3.07" y1="7.75" x2="3.07" y2="10.42"/></g></g></svg>