<svg xmlns="http://www.w3.org/2000/svg" viewBox="0 0 20.64 18.74"><defs><style>.cls-1,.cls-2{fill:none;stroke-linejoin:round;}.cls-1{stroke:#fdc511;}.cls-2{stroke:#1e66af;}.cls-3{fill:#fdc511;}</style></defs><g id="Слой_2" data-name="Слой 2"><g id="Слой_1-2" data-name="Слой 1"><polyline class="cls-1" points="3.85 4.92 3.85 2.94 10.41 2.94 10.41 4.92"/><polyline class="cls-1" points="8.98 2.88 8.98 1 13.01 1 13.01 4.92"/><line class="cls-2" x1="4" y1="8.31" x2="12.86" y2="8.31"/><line class="cls-2" x1="5.66" y1="10.65" x2="11.2" y2="10.65"/><circle class="cls-3" cx="4.48" cy="16.69" r="0.5"/><path class="cls-3" d="M13.5,16.69a.5.5,0,0,1,.5-.5.5.5,0,0,1,0,1A.5.5,0,0,1,13.5,16.69Z"/><circle class="cls-2" cx="4.48" cy="16.69" r="1.55"/><polyline class="cls-2" points="14.44 13.55 3.15 13.55 0.5 5.66 16.36 5.66"/><circle class="cls-2" cx="14" cy="16.69" r="1.55"/><line class="cls-2" x1="5.95" y1="16.69" x2="12.53" y2="16.69"/><polyline class="cls-2" points="20.64 0.5 17.61 0.5 14.05 15.14"/></g></g></svg>