<svg xmlns="http://www.w3.org/2000/svg" viewBox="0 0 20.07 21.63"><defs><style>.cls-1,.cls-2,.cls-3{fill:none;stroke-linejoin:round;}.cls-1,.cls-3{stroke:#1e66af;}.cls-2{stroke:#fdc511;stroke-linecap:square;}.cls-3{stroke-linecap:round;}</style></defs><g id="Слой_2" data-name="Слой 2"><g id="Слой_1-2" data-name="Слой 1"><line class="cls-1" x1="0.5" y1="14.45" x2="19.57" y2="14.45"/><path class="cls-1" d="M8.85,10.61A1.15,1.15,0,0,1,7.7,11.77H4.14A1.15,1.15,0,0,1,3,10.61V4A1.17,1.17,0,0,1,4.14,2.8H7.7A1.16,1.16,0,0,1,8.85,4Z"/><path class="cls-1" d="M17.09,10.61a1.15,1.15,0,0,1-1.15,1.16H12.38a1.15,1.15,0,0,1-1.16-1.16V4A1.16,1.16,0,0,1,12.38,2.8h3.56A1.16,1.16,0,0,1,17.09,4Z"/><line class="cls-2" x1="6.91" y1="5" x2="4.89" y2="5"/><line class="cls-2" x1="6.91" y1="7.28" x2="4.89" y2="7.28"/><line class="cls-2" x1="6.91" y1="9.56" x2="4.89" y2="9.56"/><line class="cls-2" x1="15.16" y1="5" x2="13.15" y2="5"/><line class="cls-2" x1="15.16" y1="7.28" x2="13.15" y2="7.28"/><line class="cls-2" x1="15.16" y1="9.56" x2="13.15" y2="9.56"/><path class="cls-3" d="M.5,21.13h0V1.77A1.27,1.27,0,0,1,1.77.5H18.31a1.27,1.27,0,0,1,1.26,1.27V21.13h0"/><line class="cls-3" x1="0.5" y1="17.87" x2="19.57" y2="17.87"/></g></g></svg>