<svg xmlns="http://www.w3.org/2000/svg" viewBox="0 0 21.52 18.39"><defs><style>.cls-1,.cls-2,.cls-3,.cls-4,.cls-5{fill:none;stroke-linejoin:round;}.cls-1,.cls-2,.cls-3,.cls-4{stroke:#1e66af;}.cls-1{stroke-linecap:round;}.cls-3{stroke-dasharray:1.1 2.2;}.cls-4{stroke-linecap:square;}.cls-5{stroke:#fdc511;}</style></defs><g id="Слой_2" data-name="Слой 2"><g id="Режим_изоляции" data-name="Режим изоляции"><path class="cls-1" d="M10.75,7.63A10.26,10.26,0,0,0,.5,17.89H21A10.27,10.27,0,0,0,10.75,7.63Z"/><path class="cls-1" d="M10.75,11.58a6.32,6.32,0,0,0-6.33,6.31H17.09A6.33,6.33,0,0,0,10.75,11.58Z"/><path class="cls-1" d="M10.75,17a.87.87,0,0,0-.86.87h1.74A.87.87,0,0,0,10.75,17Z"/><path class="cls-2" d="M15,17.89a4.07,4.07,0,0,0,0-.5"/><path class="cls-3" d="M14.11,15.37a4.24,4.24,0,0,0-3.36-1.65,4.19,4.19,0,0,0-3.88,2.61"/><path class="cls-2" d="M6.59,17.39a4.07,4.07,0,0,0,0,.5"/><line class="cls-1" x1="10.75" y1="14.95" x2="10.75" y2="17.45"/><line class="cls-4" x1="10.75" y1="4.98" x2="10.75" y2="6.24"/><path class="cls-5" d="M1.75.5V.7A2.73,2.73,0,0,0,4.49,3.43H17A2.73,2.73,0,0,0,19.76.7V.5Z"/></g></g></svg>