<svg xmlns="http://www.w3.org/2000/svg" viewBox="0 0 20.07 21.63"><defs><style>.cls-1,.cls-2{fill:none;stroke-linejoin:round;}.cls-1{stroke:#1e66af;stroke-linecap:round;}.cls-2{stroke:#fdc511;stroke-linecap:square;}</style></defs><g id="Слой_2" data-name="Слой 2"><g id="Режим_изоляции" data-name="Режим изоляции"><path class="cls-1" d="M19.57,19.86a1.26,1.26,0,0,1-1.26,1.27H1.77A1.26,1.26,0,0,1,.5,19.86V1.77A1.27,1.27,0,0,1,1.77.5H18.31a1.27,1.27,0,0,1,1.26,1.27Z"/><line class="cls-1" x1="0.5" y1="7.4" x2="19.57" y2="7.4"/><line class="cls-1" x1="0.5" y1="14.23" x2="19.57" y2="14.23"/><line class="cls-2" x1="12.61" y1="5.28" x2="9.46" y2="5.28"/><line class="cls-2" x1="17.7" y1="5.28" x2="14.55" y2="5.28"/><line class="cls-2" x1="12.61" y1="18.86" x2="9.46" y2="18.86"/><line class="cls-2" x1="17.7" y1="18.86" x2="14.55" y2="18.86"/><line class="cls-2" x1="5.95" y1="12.07" x2="2.8" y2="12.07"/><line class="cls-2" x1="11.04" y1="12.07" x2="7.89" y2="12.07"/></g></g></svg>