<svg xmlns="http://www.w3.org/2000/svg" viewBox="0 0 21.7 21.73"><defs><style>.cls-1,.cls-2,.cls-3,.cls-4{fill:none;stroke-linejoin:round;}.cls-1,.cls-2{stroke:#1e66af;}.cls-2{stroke-linecap:round;}.cls-3,.cls-4{stroke:#fdc511;}.cls-4{stroke-linecap:square;}</style></defs><g id="Слой_2" data-name="Слой 2"><g id="Слой_1-2" data-name="Слой 1"><line class="cls-1" x1="1.06" y1="7.29" x2="1.75" y2="7.29"/><line class="cls-2" x1="0.5" y1="7.29" x2="1.23" y2="7.29"/><line class="cls-1" x1="20.66" y1="7.29" x2="19.97" y2="7.29"/><line class="cls-2" x1="21.2" y1="7.29" x2="20.5" y2="7.29"/><path class="cls-1" d="M2.58,5.38V18.44a2.78,2.78,0,0,0,2.77,2.79h11a2.79,2.79,0,0,0,2.81-2.79V5.38Z"/><path class="cls-1" d="M19.14,4.38c0-1.11-3.7-2-8.28-2s-8.28.9-8.28,2"/><line class="cls-3" x1="10.86" y1="1.62" x2="10.86" y2="0.31"/><line class="cls-3" x1="9.23" y1="0.5" x2="12.49" y2="0.5"/><line class="cls-1" x1="2.25" y1="17.13" x2="18.81" y2="17.13"/><line class="cls-4" x1="15.68" y1="11.48" x2="6.02" y2="11.48"/></g></g></svg>