<svg xmlns="http://www.w3.org/2000/svg" viewBox="0 0 20.07 20.36"><defs><style>.cls-1,.cls-2,.cls-3,.cls-4,.cls-5,.cls-6{fill:none;stroke-linejoin:round;}.cls-1{stroke:#1e66af;}.cls-2,.cls-3,.cls-4,.cls-5,.cls-6{stroke:#fdc511;}.cls-2{stroke-linecap:square;}.cls-4,.cls-5,.cls-6{stroke-linecap:round;}.cls-5{stroke-dasharray:0.89 1.77;}.cls-6{stroke-dasharray:0.88 1.75;}</style></defs><g id="Слой_2" data-name="Слой 2"><g id="Слой_1-2" data-name="Слой 1"><path class="cls-1" d="M19.57,18.68a1.23,1.23,0,0,1-1.27,1.18H1.77A1.2,1.2,0,0,1,.5,18.68v-17A1.22,1.22,0,0,1,1.77.5H18.3a1.24,1.24,0,0,1,1.27,1.19Z"/><path class="cls-1" d="M3.28,2.83a.24.24,0,0,1-.23.23.25.25,0,0,1-.27-.23.26.26,0,0,1,.27-.23A.25.25,0,0,1,3.28,2.83Z"/><path class="cls-1" d="M5.49,2.83a.25.25,0,0,1-.27.23A.22.22,0,0,1,5,2.83a.22.22,0,0,1,.22-.23A.26.26,0,0,1,5.49,2.83Z"/><path class="cls-1" d="M7.66,2.83a.24.24,0,0,1-.23.23.25.25,0,0,1-.27-.23.26.26,0,0,1,.27-.23A.25.25,0,0,1,7.66,2.83Z"/><line class="cls-2" x1="9.85" y1="2.83" x2="10.1" y2="2.83"/><line class="cls-2" x1="11.62" y1="2.83" x2="11.91" y2="2.83"/><line class="cls-2" x1="13.42" y1="2.83" x2="13.67" y2="2.83"/><line class="cls-2" x1="15.23" y1="2.83" x2="15.48" y2="2.83"/><line class="cls-2" x1="17" y1="2.83" x2="17.29" y2="2.83"/><path class="cls-1" d="M16.21,11.91A6,6,0,0,1,10,17.7a6,6,0,0,1-6.15-5.79A6,6,0,0,1,10,6.09,6,6,0,0,1,16.21,11.91Z"/><path class="cls-3" d="M6.48,11.91A3.44,3.44,0,0,1,10,8.57"/><path class="cls-3" d="M13.6,11.91A3.46,3.46,0,0,1,10,15.23"/><path class="cls-4" d="M10,8.57a4.07,4.07,0,0,1,.5,0"/><path class="cls-5" d="M12.16,9.23a3.28,3.28,0,0,1,1.14,1.34"/><path class="cls-4" d="M13.56,11.41a4,4,0,0,1,0,.5"/><path class="cls-4" d="M10,15.23a4.19,4.19,0,0,1-.5,0"/><path class="cls-6" d="M7.89,14.57a3.51,3.51,0,0,1-1.12-1.33"/><path class="cls-4" d="M6.52,12.41a2.74,2.74,0,0,1,0-.5"/></g></g></svg>