<svg xmlns="http://www.w3.org/2000/svg" viewBox="0 0 22.1 22.1"><defs><style>.cls-1{fill:#1e66af;}.cls-2{fill:#fdc511;}</style></defs><g id="Слой_2" data-name="Слой 2"><g id="Слой_1-2" data-name="Слой 1"><path class="cls-1" d="M21.78,6.17a.66.66,0,0,0-.65,0L14.72,9.92V6.73a.64.64,0,0,0-1-.55L7.34,9.92V.65A.65.65,0,0,0,6.69,0h-6A.65.65,0,0,0,0,.65V21.46a.65.65,0,0,0,.65.64H21.46a.64.64,0,0,0,.64-.64V6.73A.65.65,0,0,0,21.78,6.17ZM1.3,1.3H6v.86H1.3ZM20.81,20.81H1.3V3.45H6v7.6a.65.65,0,0,0,1,.56l6.41-3.75v3.19a.65.65,0,0,0,1,.56l6.41-3.75Z"/><path class="cls-2" d="M9.28,14.31H6.69A.65.65,0,0,0,6,15v2.59a.65.65,0,0,0,.65.65H9.28a.65.65,0,0,0,.65-.65V15A.65.65,0,0,0,9.28,14.31ZM8.63,16.9H7.34V15.61H8.63Z"/><path class="cls-2" d="M16.66,14.31H14.07a.65.65,0,0,0-.64.65v2.59a.65.65,0,0,0,.64.65h2.59a.65.65,0,0,0,.65-.65V15A.65.65,0,0,0,16.66,14.31ZM16,16.9h-1.3V15.61H16Z"/></g></g></svg>