<svg xmlns="http://www.w3.org/2000/svg" viewBox="0 0 21.41 21.42"><defs><style>.cls-1,.cls-2{fill:none;stroke-linejoin:round;}.cls-1{stroke:#1e66af;}.cls-2{stroke:#fdc511;}</style></defs><g id="Слой_2" data-name="Слой 2"><g id="Слой_1-2" data-name="Слой 1"><path class="cls-1" d="M20.91,18.15a2.76,2.76,0,0,1-2.74,2.77H3.26A2.76,2.76,0,0,1,.5,18.15V3.24A2.75,2.75,0,0,1,3.26.5H18.17a2.74,2.74,0,0,1,2.74,2.74Z"/><path class="cls-1" d="M8.76,18.83a.25.25,0,1,1-.49,0,.25.25,0,1,1,.49,0Z"/><path class="cls-1" d="M11,18.83a.25.25,0,0,1-.25.25.26.26,0,0,1-.24-.25.25.25,0,0,1,.24-.25A.24.24,0,0,1,11,18.83Z"/><path class="cls-1" d="M13.14,18.83a.24.24,0,1,1-.47,0,.24.24,0,1,1,.47,0Z"/><path class="cls-1" d="M8.56,13.72a2.48,2.48,0,1,1-2.48-2.48A2.49,2.49,0,0,1,8.56,13.72Z"/><line class="cls-1" x1="6.08" y1="10.2" x2="6.08" y2="12.19"/><line class="cls-1" x1="6.08" y1="15.25" x2="6.08" y2="17.25"/><line class="cls-1" x1="9.6" y1="13.72" x2="7.61" y2="13.72"/><line class="cls-1" x1="4.55" y1="13.72" x2="2.56" y2="13.72"/><path class="cls-2" d="M17.81,13.72a2.47,2.47,0,1,1-2.47-2.48A2.48,2.48,0,0,1,17.81,13.72Z"/><line class="cls-2" x1="15.34" y1="10.2" x2="15.34" y2="12.19"/><line class="cls-2" x1="15.34" y1="15.25" x2="15.34" y2="17.25"/><line class="cls-2" x1="18.85" y1="13.72" x2="16.87" y2="13.72"/><line class="cls-2" x1="13.81" y1="13.72" x2="11.83" y2="13.72"/><path class="cls-2" d="M8.56,6A2.48,2.48,0,1,1,6.08,3.49,2.49,2.49,0,0,1,8.56,6Z"/><line class="cls-2" x1="6.08" y1="2.44" x2="6.08" y2="4.44"/><line class="cls-2" x1="6.08" y1="7.5" x2="6.08" y2="9.49"/><line class="cls-2" x1="9.6" y1="5.97" x2="7.61" y2="5.97"/><line class="cls-2" x1="4.55" y1="5.97" x2="2.56" y2="5.97"/><path class="cls-1" d="M17.81,6a2.47,2.47,0,1,1-2.47-2.48A2.48,2.48,0,0,1,17.81,6Z"/><line class="cls-1" x1="15.34" y1="2.44" x2="15.34" y2="4.44"/><line class="cls-1" x1="15.34" y1="7.5" x2="15.34" y2="9.49"/><line class="cls-1" x1="18.85" y1="5.97" x2="16.87" y2="5.97"/><line class="cls-1" x1="13.81" y1="5.97" x2="11.83" y2="5.97"/></g></g></svg>