<svg xmlns="http://www.w3.org/2000/svg" viewBox="0 0 19.68 21.27"><defs><style>.cls-1,.cls-3{fill:none;stroke-linejoin:round;}.cls-1{stroke:#1e66af;}.cls-2{fill:#1e66af;}.cls-3{stroke:#fdc511;}</style></defs><g id="Слой_2" data-name="Слой 2"><g id="Слой_1-2" data-name="Слой 1"><path class="cls-1" d="M19.18,18.56a1,1,0,0,1-1,1H1.53a1,1,0,0,1-1-1V7.8a1,1,0,0,1,1-1H18.15a1,1,0,0,1,1,1Z"/><rect class="cls-1" x="2.65" y="8.9" width="11.81" height="8.57"/><path class="cls-2" d="M17.77,9.72A.81.81,0,1,1,17,8.9.8.8,0,0,1,17.77,9.72Z"/><line class="cls-1" x1="16.44" y1="13.18" x2="17.51" y2="13.18"/><line class="cls-1" x1="16.44" y1="14.54" x2="17.51" y2="14.54"/><line class="cls-1" x1="16.44" y1="15.89" x2="17.51" y2="15.89"/><line class="cls-1" x1="16.44" y1="17.26" x2="17.51" y2="17.26"/><line class="cls-1" x1="2.19" y1="20.77" x2="4.43" y2="20.77"/><line class="cls-1" x1="15.24" y1="20.77" x2="17.48" y2="20.77"/><path class="cls-3" d="M5.91,2.67a1.66,1.66,0,0,1,0-2.32"/><path class="cls-3" d="M5.91,2.67A1.61,1.61,0,0,1,5.91,5"/><path class="cls-3" d="M8.55,2.67a1.66,1.66,0,0,1,0-2.32"/><path class="cls-3" d="M8.55,2.67A1.65,1.65,0,0,1,8.55,5"/><path class="cls-3" d="M11.19,2.67a1.66,1.66,0,0,1,0-2.32"/><path class="cls-3" d="M11.19,2.67a1.65,1.65,0,0,1,0,2.31"/><path class="cls-3" d="M11.07,11.62c0-.54-1-1-2.28-1s-2.29.44-2.29,1c0,.23.18.44.49.6v3.1a.4.4,0,0,0,.41.4h2.78a.4.4,0,0,0,.4-.4v-3.1C10.89,12.06,11.07,11.85,11.07,11.62Z"/></g></g></svg>