<svg xmlns="http://www.w3.org/2000/svg" viewBox="0 0 19.16 21.78"><defs><style>.cls-1,.cls-2{fill:none;stroke-linejoin:round;}.cls-1{stroke:#1e66af;}.cls-2{stroke:#fdc511;}</style></defs><g id="Слой_2" data-name="Слой 2"><g id="Слой_1-2" data-name="Слой 1"><path class="cls-1" d="M17.11,12.51H2A1.53,1.53,0,0,1,.5,11V4.34A3.85,3.85,0,0,1,4.34.5H14.82a3.86,3.86,0,0,1,3.84,3.84V11A1.54,1.54,0,0,1,17.11,12.51Z"/><path class="cls-1" d="M16.26,4.74a1.78,1.78,0,0,1-1.77,1.77H9.76A1.76,1.76,0,0,1,8,4.74H8A1.75,1.75,0,0,1,9.76,3h4.73a1.76,1.76,0,0,1,1.77,1.75Z"/><line class="cls-1" x1="0.58" y1="7.13" x2="3.27" y2="7.13"/><line class="cls-1" x1="0.58" y1="8.73" x2="3.27" y2="8.73"/><line class="cls-1" x1="0.58" y1="10.3" x2="3.27" y2="10.3"/><path class="cls-2" d="M11.44,17.37,9.56,14.8,7.71,17.37a2.42,2.42,0,1,0,3.73,0Z"/><path class="cls-2" d="M10.35,17.37,9.56,14.8l-.75,2.57a4.87,4.87,0,0,0-.23,1.5c0,1.34.45,2.41,1,2.41s1-1.07,1-2.41A5.22,5.22,0,0,0,10.35,17.37Z"/><line class="cls-2" x1="9.57" y1="14.11" x2="9.57" y2="13.37"/><path class="cls-2" d="M5.4,17.37,3.52,14.8,1.65,17.37a2.51,2.51,0,0,0-.53,1.5,2.41,2.41,0,1,0,4.81,0A2.51,2.51,0,0,0,5.4,17.37Z"/><path class="cls-2" d="M4.29,17.37,3.52,14.8l-.76,2.57a4.88,4.88,0,0,0-.22,1.5c0,1.34.44,2.41,1,2.41s1-1.07,1-2.41A4.6,4.6,0,0,0,4.29,17.37Z"/><line class="cls-2" x1="3.52" y1="14.11" x2="3.52" y2="13.37"/></g></g></svg>