<svg xmlns="http://www.w3.org/2000/svg" viewBox="0 0 16.58 20.29"><defs><style>.cls-1,.cls-2{fill:none;stroke-linejoin:round;}.cls-1{stroke:#1e66af;stroke-linecap:round;}.cls-2{stroke:#fdc511;}</style></defs><g id="Слой_2" data-name="Слой 2"><g id="Слой_1-2" data-name="Слой 1"><polygon class="cls-1" points="11.17 19.79 1.2 19.79 2.33 14.63 10.04 14.63 11.17 19.79"/><polygon class="cls-1" points="1.2 4.05 11.17 4.05 10.04 14.63 2.33 14.63 1.2 4.05"/><line class="cls-2" x1="4.87" y1="12.79" x2="4.48" y2="6.27"/><line class="cls-2" x1="7.91" y1="6.27" x2="7.52" y2="12.79"/><path class="cls-1" d="M13.39,4.06h.78a1.86,1.86,0,0,1,1.91,1.79h0a1.86,1.86,0,0,1-1.91,1.78"/><rect class="cls-1" x="0.5" y="1.94" width="11.39" height="2.12"/><line class="cls-2" x1="3.1" y1="0.5" x2="9.27" y2="0.5"/><path class="cls-1" d="M7.38,17.21a1.16,1.16,0,0,1-1.18,1.1,1.11,1.11,0,1,1,0-2.2A1.15,1.15,0,0,1,7.38,17.21Z"/></g></g></svg>