<svg xmlns="http://www.w3.org/2000/svg" viewBox="0 0 19.49 21.63"><defs><style>.cls-1,.cls-2,.cls-3{fill:none;stroke-linejoin:round;}.cls-1{stroke:#fdc511;}.cls-2,.cls-3{stroke:#1e66af;}.cls-3{stroke-linecap:round;}</style></defs><g id="Слой_2" data-name="Слой 2"><g id="Режим_изоляции" data-name="Режим изоляции"><line class="cls-1" x1="15.56" y1="3.85" x2="15.56" y2="0.78"/><polygon class="cls-1" points="18.19 2.15 15.56 2.15 15.56 0.5 18.19 0.5 17.5 1.33 18.19 2.15"/><path class="cls-2" d="M1.68,10.4H17.8a1.19,1.19,0,0,0,1.12-1.58,9.71,9.71,0,0,0-18.35,0A1.19,1.19,0,0,0,1.68,10.4Z"/><path class="cls-2" d="M1.3,17.12v1.5a2.51,2.51,0,0,0,2.52,2.51H15.67a2.51,2.51,0,0,0,2.52-2.51v-1.5Z"/><path class="cls-1" d="M1.48,13.86a1.23,1.23,0,0,1,1,.36,2.71,2.71,0,0,0,1.91.85,2.71,2.71,0,0,0,1.91-.85,1.3,1.3,0,0,1,1.8,0,2.69,2.69,0,0,0,1.91.85,2.69,2.69,0,0,0,1.9-.85,1.3,1.3,0,0,1,1.8,0,2.57,2.57,0,0,0,3.82,0,1.23,1.23,0,0,1,.6-.33h.19a.72.72,0,0,0,.72-.72h0a.72.72,0,0,0-.72-.71h-17a.71.71,0,0,0-.72.71h0a.72.72,0,0,0,.72.72Z"/><line class="cls-3" x1="3.62" y1="6.89" x2="3.62" y2="6.89"/><line class="cls-3" x1="6.35" y1="5.04" x2="6.35" y2="5.04"/><line class="cls-3" x1="9.74" y1="3.92" x2="9.74" y2="3.92"/><line class="cls-3" x1="8.84" y1="6.34" x2="8.84" y2="6.34"/><line class="cls-3" x1="6.35" y1="7.4" x2="6.35" y2="7.4"/><line class="cls-3" x1="12.43" y1="4.62" x2="12.43" y2="4.62"/><line class="cls-3" x1="14.77" y1="6.12" x2="14.77" y2="6.12"/><line class="cls-3" x1="12.21" y1="6.89" x2="12.21" y2="6.89"/></g></g></svg>