<svg xmlns="http://www.w3.org/2000/svg" viewBox="0 0 21.42 21.08"><defs><style>.cls-1,.cls-2{fill:none;stroke-linejoin:round;}.cls-1{stroke:#1e66af;}.cls-2{stroke:#fdc511;stroke-linecap:round;}</style></defs><g id="Слой_2" data-name="Слой 2"><g id="Слой_1-2" data-name="Слой 1"><polyline class="cls-1" points="19.03 9.49 19.03 20.58 2.4 20.58 2.4 9.49"/><path class="cls-2" d="M6.09,9.49v4.94L6.61,14a.48.48,0,0,1,.62,0l.17.13a.49.49,0,0,0,.67-.05h0a.48.48,0,0,1,.67,0l.48.38V9.49"/><line class="cls-1" x1="9.26" y1="18.31" x2="6.03" y2="18.31"/><line class="cls-1" x1="13.33" y1="9.49" x2="13.33" y2="19.1"/><line class="cls-1" x1="13.33" y1="18.43" x2="13.33" y2="20.58"/><polyline class="cls-1" points="13.32 9.49 2.4 9.49 0.5 5.43 11.41 5.43 13.32 9.49 18.12 9.49"/><path class="cls-1" d="M17.66,9.49H19l1.9-4.06h-5.7L13.33,9.49"/><line class="cls-2" x1="10.19" y1="1.82" x2="9.36" y2="1.82"/><line class="cls-2" x1="12.01" y1="1.82" x2="11.17" y2="1.82"/><line class="cls-2" x1="10.68" y1="2.31" x2="10.68" y2="3.14"/><line class="cls-2" x1="10.68" y1="0.5" x2="10.68" y2="1.33"/><path class="cls-2" d="M3.23.92A6.31,6.31,0,0,0,2.17.84"/><path class="cls-2" d="M6.93,4.31A4.08,4.08,0,0,0,4.87,1.45"/></g></g></svg>