<svg xmlns="http://www.w3.org/2000/svg" viewBox="0 0 511.76 512"><defs><style>.cls-1{fill:#fdc511;}.cls-2{fill:none;}.cls-3{fill:#fff;}.cls-4{fill:#1b66af;}</style></defs><g id="Слой_2" data-name="Слой 2"><g id="Слой_1-2" data-name="Слой 1"><path class="cls-1" d="M376.46,504.5V404.71a49.73,49.73,0,0,0-26.69-44.08L333,351.86l-63-31h-92l-65.66,32.29a60.29,60.29,0,0,0-25.72,24.16L68.1,410V309.48H10.64V464.61A35.17,35.17,0,0,0,73.17,486.7l48.92-60.6v78.19"/><path class="cls-1" d="M349.77,360.63,333,351.85l-63-31H230l63,31,16.76,8.78a49.73,49.73,0,0,1,26.69,44.08v99.76l40,0V404.71A49.73,49.73,0,0,0,349.77,360.63Z"/><path class="cls-1" d="M275.79,7.5H172.32a24.21,24.21,0,0,0-24.21,24.21V149.39H300V31.71A24.21,24.21,0,0,0,275.79,7.5Z"/><path class="cls-1" d="M275.79,7.5h-40A24.21,24.21,0,0,1,260,31.71V149.39h40V31.71A24.21,24.21,0,0,0,275.79,7.5Z"/><path class="cls-1" d="M148.11,122.62H300v26.77H148.11Z"/><path class="cls-1" d="M178.07,276.67l46,20.85,46-20.85v44.22l-46,20.48-46-20.48Z"/><path class="cls-1" d="M224.06,297.52v43.85l-56,27.1v136"/><path class="cls-1" d="M270,276.67v44.22l-46,20.48V297.52Z"/><path class="cls-2" d="M178.07,320.89l-65.66,32.29a60.29,60.29,0,0,0-25.72,24.16L68.1,410V309.48H10.64V464.61A35.17,35.17,0,0,0,73.17,486.7l48.92-60.6v78.19"/><path class="cls-2" d="M376.46,494.5V404.71a49.73,49.73,0,0,0-26.69-44.08L333,351.86l-63-31"/><path class="cls-3" d="M323.5,478.22V386.78H481.24v91.44A26.27,26.27,0,0,1,455,504.5H349.77A26.27,26.27,0,0,1,323.5,478.22Z"/><path class="cls-3" d="M441.24,386.78v91.44A26.27,26.27,0,0,1,415,504.5h40a26.27,26.27,0,0,0,26.27-26.28V386.78Z"/><path class="cls-3" d="M323.5,386.78H481.24a30.66,30.66,0,0,0-30.65-30.66H354.15A30.66,30.66,0,0,0,323.5,386.78Z"/><path class="cls-3" d="M450.59,356.12h-40a30.66,30.66,0,0,1,30.65,30.66h40A30.66,30.66,0,0,0,450.59,356.12Z"/><path class="cls-4" d="M349.5,269.38c0,9.68,15,9.68,15,0,0-1,.08-1.28,2.54-3.51,9.46-8.58,9.47-20.66,0-29.24-3.19-2.89-3.19-4.14,0-7,2.79-2.53,7.46-6.77,7.46-14.63,0-9.67-15-9.67-15,0,0,1-.09,1.29-2.54,3.51-9.46,8.58-9.47,20.66,0,29.25,3.19,2.89,3.19,4.13,0,7h0C354.17,257.29,349.5,261.53,349.5,269.38Z"/><path class="cls-4" d="M437,282c-2.79,2.53-7.46,6.77-7.46,14.63,0,9.67,15,9.67,15,0,0-1,.08-1.29,2.54-3.52,9.46-8.57,9.47-20.66,0-29.24-3.19-2.89-3.19-4.13,0-7,2.79-2.53,7.46-6.77,7.46-14.63,0-9.67-15-9.67-15,0,0,1-.09,1.29-2.54,3.51-9.46,8.58-9.47,20.66,0,29.25C440.15,277.83,440.15,279.07,437,282Z"/><path class="cls-4" d="M397,210.28c-2.79,2.54-7.46,6.77-7.46,14.63,0,9.67,15,9.67,15,0,0-1,.08-1.29,2.54-3.51,9.46-8.58,9.47-20.66,0-29.25-3.19-2.89-3.19-4.13,0-7,2.79-2.53,7.46-6.77,7.46-14.62,0-9.68-15-9.68-15,0,0,1-.09,1.28-2.54,3.51-9.46,8.58-9.47,20.65,0,29.24C400.15,206.15,400.15,207.39,397,210.28Z"/><path class="cls-4" d="M202.06,391.33c-9.65,0-9.66,15,0,15S211.73,391.33,202.06,391.33Z"/><path class="cls-4" d="M202.06,433.32c-9.65,0-9.66,15,0,15S211.73,433.32,202.06,433.32Z"/><path class="cls-4" d="M202.06,475.3c-9.65,0-9.66,15,0,15S211.73,475.3,202.06,475.3Z"/><path class="cls-4" d="M246.05,391.33c-9.65,0-9.67,15,0,15S255.72,391.33,246.05,391.33Z"/><path class="cls-4" d="M246.05,433.32c-9.65,0-9.67,15,0,15S255.72,433.32,246.05,433.32Z"/><path class="cls-4" d="M246.05,475.3c-9.65,0-9.67,15,0,15S255.72,475.3,246.05,475.3Z"/><path class="cls-4" d="M244.72,220.29a7.5,7.5,0,0,0-10.61-10.61,14.24,14.24,0,0,1-20.11,0,7.5,7.5,0,0,0-10.6,10.61,29.26,29.26,0,0,0,41.32,0Z"/><path class="cls-4" d="M504.5,401.11H488.74V386.78a38.2,38.2,0,0,0-38.15-38.16h-24v-.54a24.17,24.17,0,0,0-48.34,0v.54H354.15a38,38,0,0,0-9,1.1l-8.62-4.51-.16-.09-58.78-28.9V276.67c0-7-7.87-8.81-12.92-5.78v-18A83.59,83.59,0,0,0,307,189.15h1.11a23.63,23.63,0,1,0,0-47.26h-.6V31.71A31.75,31.75,0,0,0,275.79,0H172.32a31.75,31.75,0,0,0-31.71,31.71V141.89H140a23.63,23.63,0,1,0,0,47.26h1.12a83.58,83.58,0,0,0,42.36,63.75v18c-5-3.1-12.92-1.35-12.92,5.78v39.55L109.1,346.45a67.54,67.54,0,0,0-28.93,27.18l-4.57,8V309.48a7.5,7.5,0,0,0-7.5-7.5H66v-9.66a40.8,40.8,0,0,0,8.65-2.6,18.72,18.72,0,0,0,4.24-32l-.68-.53a17.48,17.48,0,0,0-5.82-3,19,19,0,0,0,20.12-13.68A18.59,18.59,0,0,0,87.65,222a41.43,41.43,0,0,0-44.89-8.87V194.84c0-27.29-42.76-27.67-42.76,0v45.65a47.09,47.09,0,0,0,7.33,24.84,33.15,33.15,0,0,1,5,17.56V302H10.64a7.5,7.5,0,0,0-7.5,7.5V464.6A42.67,42.67,0,0,0,79,491.4l35.58-44.08v57c0,9.67,15,9.67,15,0v-78.2c0-6.81-9-10.09-13.34-4.71L67.34,482a27.67,27.67,0,0,1-49.2-17.38V317H60.6V433.85c0,9.67,15,9.67,15,0V412l17.6-30.92a52.61,52.61,0,0,1,22.52-21.15l62.51-30.74,28,12.48L164.8,361.72a7.51,7.51,0,0,0-4.23,6.75v136c0,9.67,15,9.67,15,0V373.17l94.32-44,59,29A38.06,38.06,0,0,0,316,386.78v14.33H300.24c-9.67,0-9.67,15,0,15H316v62.11A33.81,33.81,0,0,0,349.77,512H455a33.81,33.81,0,0,0,33.77-33.78V416.11H504.5C514.17,416.11,514.17,401.11,504.5,401.11Zm-197-244.22h.6a8.63,8.63,0,1,1,0,17.26h-.6ZM140.61,174.15H140a8.63,8.63,0,0,1,0-17.26h.6ZM58.51,278a7.57,7.57,0,0,0-7.5,7.5V302H27.36V282.89a48.09,48.09,0,0,0-7.3-25.49A32.12,32.12,0,0,1,15,240.5V194.84c0-8.18,12.76-8.33,12.76,0v31.77a7.66,7.66,0,0,0,4.63,6.93,7.51,7.51,0,0,0,8.09-1.4,26.4,26.4,0,0,1,36.62.53c3.29,3.25-1.78,9.26-5.32,5.69a18.58,18.58,0,0,0-15.39-5.42c-22.6,2.58-20.77,37.26,2.12,37.26,3,0,8.6-3.12,11.16-.65,2,1.89,2,5.16-.87,6.36A26.08,26.08,0,0,1,58.51,278ZM69,253.55a18.8,18.8,0,0,0-9.07,1.38c-7.7,3.19-4.66-12,1.21-6A18.32,18.32,0,0,0,69,253.55ZM292.5,141.89H155.61V130.12H292.5ZM172.32,15H275.79A16.73,16.73,0,0,1,292.5,31.71v83.41H264.62V97.8a7.5,7.5,0,0,0-15,0v17.32H231.56V54a7.5,7.5,0,1,0-15,0v61.16H198.49V78.31a7.5,7.5,0,0,0-15,0v36.81H155.62V31.71A16.73,16.73,0,0,1,172.32,15ZM155.61,180V156.89H292.5V180a68.45,68.45,0,0,1-136.89,0Zm60.95,149.8-31-13.8V288.3l1.28.59a7.39,7.39,0,0,0,2.14,1l27.57,12.5Zm-18.07-52.13V259.44a83.3,83.3,0,0,0,51.13,0v18.25l-25.57,11.59ZM262.54,316l-31,13.8V302.36l27.56-12.5a7.69,7.69,0,0,0,2.14-1l1.28-.59ZM393.2,348.08a9.17,9.17,0,0,1,18.34,0v.54H393.2Zm-39.05,15.54h96.44a23.21,23.21,0,0,1,21.91,15.66H332.24A23.21,23.21,0,0,1,354.15,363.62Zm119.59,114.6A18.79,18.79,0,0,1,455,497H349.77A18.79,18.79,0,0,1,331,478.22V394.28H473.74Z"/><path class="cls-4" d="M453.89,474.36a7.5,7.5,0,0,0,7.5-7.5V424.13a7.5,7.5,0,0,0-15,0v42.73A7.5,7.5,0,0,0,453.89,474.36Z"/></g></g></svg>