<svg xmlns="http://www.w3.org/2000/svg" viewBox="0 0 478.68 479.61"><defs><style>.cls-1{fill:#fdc511;}.cls-2{fill:#1b66af;}</style></defs><g id="Слой_2" data-name="Слой 2"><g id="Слой_1-2" data-name="Слой 1"><path class="cls-1" d="M177.29,218.34q30.83,0,61.67,0v0H299.7c1.71,0,3.43,0,5.14-.06,7.83-.38,11.27-5,9.12-12.59a28.72,28.72,0,0,0-3.13-6.75q-32-53.06-64-106c-4.81-8-10.14-7.86-15,.19q-18.76,31-37.47,62c-9.1,15.07-18.34,30.06-27.26,45.25C160.4,211.69,164.3,218.33,177.29,218.34Z"/><path class="cls-2" d="M0,273.53V152.69c5.35-19.44,20-23.23,37.67-21.39v-6.41c0-33.41.24-66.83-.17-100.23C37.35,12.87,41.05,4.38,52.36,0h374c11.28,4.42,14.94,12.9,14.8,24.69-.41,33.56-.12,67.12-.11,100.68v5.77h9.46c17.53,0,28.19,10.72,28.2,28.32q0,53.4,0,106.78c0,17.63-10.47,28.17-28.16,28.42-3,0-6.09,0-9.54,0v9.16q0,49.41,0,98.81a45.38,45.38,0,0,1-.41,7c-1.33,8.65-7.84,15.18-16.57,15.81-7.75.56-15.57.29-23.35.38-2,0-3.93,0-6.39,0V432c0,12.33-.11,24.66,0,37,.06,4.31-.71,8-4.41,10.59h-5.61c-3.38-2.79-4.3-6.4-4.12-10.69.26-6.39.06-12.79.06-19.18V426.22H344.81c0,14.57-.1,28.74.06,42.9.05,4.33-.78,8-4.56,10.49h-4.68c-3.7-2-5-5-4.94-9.21.19-13.07.07-26.15.07-39.23V426.1H271.09v5.33c0,12.77-.12,25.54.08,38.31.07,4.27-1,7.59-4.72,9.87h-4.67c-3.77-2.2-4.88-5.49-4.81-9.79.22-12.92.09-25.85.1-38.77v-4.92H221.62V431c0,12.92-.16,25.85,0,38.77.07,4.3-1,7.58-4.77,9.82h-4.67c-3.66-2.29-4.81-5.56-4.74-9.86.22-12.92.08-25.85.08-38.77v-4.79H147.89v5.41c0,12.77-.13,25.54.06,38.31.07,4.3-1,7.62-4.91,9.7h-4.67c-3.51-2.43-4.65-5.77-4.58-10,.2-10.76.05-21.52,0-32.29V425.83H101c-3.33,0-2.57,2.49-2.57,4.36,0,13.26-.12,26.52.06,39.77,0,4.31-1,7.64-5,9.65H88.82c-3.75-2.56-4.52-6.22-4.46-10.54.17-12.63.06-25.26.06-37.89v-5.33c-8.44,0-16.19,0-23.94,0-15.53,0-22.8-7.29-22.8-22.94q0-51.23,0-102.46v-5.81c-4.26,0-7.82,0-11.38,0-8.43-.12-15.61-3.18-20.61-10C3.26,281.29,1.86,277.24,0,273.53Zm426.94-60.65q0-95.31,0-190.6c0-7-1.28-8.23-8.13-8.23H59.86c-6.87,0-8.16,1.28-8.16,8.19v381.2c0,7,1.29,8.29,8.12,8.29l333.25,0c9,0,18.08.07,27.11,0,5.1-.06,6.6-1.7,6.75-6.84.05-1.71,0-3.43,0-5.15ZM37.42,145.2c-3.47,0-6.7,0-9.94,0-8.83.09-13.42,4.72-13.44,13.68,0,13.88,0,27.77,0,41.66q0,33.24,0,66.48c0,6.58,2.9,11.74,8.1,12.73,4.91.94,10,.7,15.28,1Zm403.78,0V280.57c3.29,0,6.36.05,9.44,0,9.62-.19,14-4.56,14-14.14q.06-26,0-52c0-18.57,0-37.15,0-55.72,0-8.86-4.71-13.44-13.62-13.52C447.92,145.17,444.83,145.2,441.2,145.2Z"/><path class="cls-2" d="M89.28,51.55V162c5.16,0,10.21,0,15.27,0,13.09,0,20,6.81,20,19.81q0,29.25,0,58.52c0,12.44-7,19.25-19.47,19.29-5.11,0-10.21,0-15.63,0V374.28H261.13a31.48,31.48,0,0,1,4.66.2,6.24,6.24,0,0,1,5.78,6.28c.22,3.75-1.55,6.34-5.28,7.18a23.46,23.46,0,0,1-5.1.37c-43.93,0-131.07.06-175,.06-9.36,0-11.12-1.83-11.12-11.32V48.84c0-9.76,1.62-11.37,11.43-11.37H265.86a33,33,0,0,1,4.67.09c3.94.59,6.26,3.09,6.23,7s-2.38,6.35-6.32,6.9a33,33,0,0,1-4.67.09l-170.95,0Zm0,194c5.73,0,11-.09,16.27,0,3.62.08,5-1.58,5-5.09-.11-5.14,0-10.28,0-15.42,0-14.49.11-29-.14-43.46,0-1.85-1.8-5.13-3-5.24-5.93-.54-12-.25-18.08-.25Z"/><path class="cls-2" d="M389.31,374.29V51.52h-5.68l-125.72,0a25.81,25.81,0,0,1-4.66-.13c-3.9-.71-6.13-3.24-6-7.15.1-3.69,2.33-6,6-6.68a22.18,22.18,0,0,1,3.74-.11H393.46c8.05,0,10.11,2.09,10.11,10.35q0,165.06,0,330.14c0,8.29-2,10.36-10.15,10.37q-68.24,0-136.47,0a19.41,19.41,0,0,1-4.64-.4c-3.65-.93-5.6-3.5-5.33-7.2a6.36,6.36,0,0,1,5.86-6.27,38.14,38.14,0,0,1,5.13-.21H389.31Z"/><path class="cls-2" d="M239.06,232.43q-30.6,0-61.2,0a51,51,0,0,1-8.39-.37c-14.32-2.38-22.3-14.84-18.44-29.14a46.1,46.1,0,0,1,5.06-11.48q31.85-53.11,64-106.08c10.08-16.64,28.5-16.61,38.58,0q32.08,53,64,106.09a42.75,42.75,0,0,1,5.34,12.85c3.19,15.48-6.64,27.77-22.52,28-22.11.3-44.23.08-66.35.08Zm-.1-14.08v0H299.7c1.71,0,3.43,0,5.14-.06,7.83-.38,11.27-5,9.12-12.59a28.72,28.72,0,0,0-3.13-6.75q-32-53.06-64-106c-4.81-8-10.14-7.86-15,.19q-18.76,31-37.47,62c-9.1,15.07-18.34,30.06-27.26,45.25-6.65,11.31-2.75,18,10.24,18Q208.12,218.37,239,218.35Z"/><path class="cls-2" d="M243.17,308h89.69c13.8,0,23.85,9.09,24.15,21.89s-9.78,22.78-23.77,22.82c-43.45.12-86.89.06-130.34.07-16.66,0-33.32.08-50-.07-12.58-.12-21.18-7.19-23.26-18.72-2.37-13.12,7.59-25.67,21-25.87,17.44-.27,34.88-.09,52.32-.09h40.18Zm.06,14.11v0H169.38c-6.08,0-12.16-.09-18.23.12a8,8,0,0,0-7.81,7.79,8.28,8.28,0,0,0,6.76,8.34,29.69,29.69,0,0,0,5.58.36H297.3c11.84,0,23.68,0,35.52,0,3.8,0,7.14-.89,9.1-4.51,3.2-5.92-1.07-12.07-8.49-12.08Q288.34,322.06,243.23,322.1Z"/><path class="cls-2" d="M300,293.16A23.35,23.35,0,1,1,323.35,270,23.39,23.39,0,0,1,300,293.16Zm.11-14.08a9.26,9.26,0,1,0-9.28-9.19A9.46,9.46,0,0,0,300.11,279.08Z"/><path class="cls-2" d="M201.19,269.92a23.24,23.24,0,1,1-23.46-23.46A23.24,23.24,0,0,1,201.19,269.92Zm-14.07-.07a9.2,9.2,0,0,0-9.1-9.32,9.28,9.28,0,0,0-.06,18.56A9.14,9.14,0,0,0,187.12,269.85Z"/><path class="cls-2" d="M234.46,170.42c-2.91,0-4.76.16-6.58,0-6.59-.67-10.24-6.57-6.8-12.1,5.93-9.51,12.43-18.68,19-27.75,2.32-3.19,6-3.31,9.19-1s4,5.69,1.9,9.11c-2.59,4.25-5.57,8.27-8.38,12.39l-3.61,5.37c2.62,0,4.41-.1,6.19,0,6.83.47,10.6,6.48,7,12.23-5.84,9.38-12.25,18.42-18.7,27.4-2.28,3.17-5.79,3.53-9.17,1.38a6.66,6.66,0,0,1-1.95-9.46C226.17,182.35,230,176.92,234.46,170.42Z"/><path class="cls-1" d="M168.81,269.78a9.31,9.31,0,0,0,9.15,9.31,9.28,9.28,0,0,0,.06-18.56A9.3,9.3,0,0,0,168.81,269.78Z"/><path class="cls-1" d="M300,260.57a9.26,9.26,0,1,0,9.32,9.2A9.53,9.53,0,0,0,300,260.57Z"/><path class="cls-1" d="M333.43,322.11q-45.09,0-90.2,0v0H169.38c-6.08,0-12.16-.09-18.23.12a8,8,0,0,0-7.81,7.79,8.28,8.28,0,0,0,6.76,8.34,29.69,29.69,0,0,0,5.58.36H297.3c11.84,0,23.68,0,35.52,0,3.8,0,7.14-.89,9.1-4.51C345.12,328.27,340.85,322.12,333.43,322.11Z"/></g></g></svg>