<svg xmlns="http://www.w3.org/2000/svg" viewBox="0 0 393 512"><defs><style>.cls-1{fill:#fdc511;}.cls-2{fill:#1b66af;}</style></defs><g id="Слой_2" data-name="Слой 2"><g id="Слой_1-2" data-name="Слой 1"><polygon class="cls-1" points="318 57.5 318 427 45 427 45 455.6 349.25 455.6 349.25 429.55 349.25 427 349.25 57.5 318 57.5"/><rect class="cls-1" x="65.5" y="127.5" width="45" height="45"/><rect class="cls-1" x="65.5" y="220.26" width="45" height="45"/><rect class="cls-1" x="65.5" y="302.13" width="45" height="57.73"/><path class="cls-2" d="M385.5,167.36a7.5,7.5,0,0,0,7.5-7.5V107.5A22.52,22.52,0,0,0,370.5,85H363V65a22.52,22.52,0,0,0-22.5-22.5H333v-20A22.52,22.52,0,0,0,310.5,0H22.5A22.52,22.52,0,0,0,0,22.5V134.37a7.5,7.5,0,0,0,15,0V22.5A7.5,7.5,0,0,1,22.5,15h288a7.5,7.5,0,0,1,7.5,7.5v382a7.5,7.5,0,0,1-7.5,7.5H22.5a7.5,7.5,0,0,1-7.5-7.5V95.86a7.5,7.5,0,0,0-15,0V404.5A22.52,22.52,0,0,0,22.5,427H30v20a22.52,22.52,0,0,0,22.5,22.5H60v20A22.52,22.52,0,0,0,82.5,512h288A22.52,22.52,0,0,0,393,489.5V148.24a7.5,7.5,0,0,0-15,0V489.5a7.5,7.5,0,0,1-7.5,7.5H82.5a7.5,7.5,0,0,1-7.5-7.5v-20H307.87a7.5,7.5,0,0,0,0-15H52.5A7.5,7.5,0,0,1,45,447V427H310.5A22.52,22.52,0,0,0,333,404.5V57.5h7.5A7.5,7.5,0,0,1,348,65V447a7.5,7.5,0,0,1-7.5,7.5H292.18a7.5,7.5,0,0,0,0,15H340.5A22.52,22.52,0,0,0,363,447V100h7.5a7.5,7.5,0,0,1,7.5,7.5v52.36A7.5,7.5,0,0,0,385.5,167.36Z"/><path class="cls-2" d="M50.5,124v52A11.51,11.51,0,0,0,62,187.5h52A11.51,11.51,0,0,0,125.5,176V137.32l15.37-13.12a7.5,7.5,0,0,0-9.74-11.4l-6.92,5.91A11.51,11.51,0,0,0,114,112.5H62A11.51,11.51,0,0,0,50.5,124Zm15,3.5h45v2.91l-14.88,12.7-7.11-7.7a7.5,7.5,0,1,0-11,10.18l12,13a7.5,7.5,0,0,0,10.38.61l10.63-9.07V172.5h-45v-45Z"/><path class="cls-2" d="M50.5,216.76v52A11.51,11.51,0,0,0,62,280.26h52a11.51,11.51,0,0,0,11.5-11.5V230.08L140.87,217a7.5,7.5,0,0,0-9.74-11.4l-6.92,5.91A11.51,11.51,0,0,0,114,205.26H62A11.51,11.51,0,0,0,50.5,216.76Zm15,3.5h45v2.91l-14.88,12.7-7.11-7.7a7.5,7.5,0,1,0-11,10.18l12,13a7.5,7.5,0,0,0,10.38.61l10.63-9.07v22.37h-45v-45Z"/><path class="cls-2" d="M50.5,309.52v52A11.51,11.51,0,0,0,62,373h52a11.51,11.51,0,0,0,11.5-11.5V322.85l15.37-13.12a7.5,7.5,0,0,0-9.74-11.41l-6.92,5.91A11.51,11.51,0,0,0,114,298H62A11.51,11.51,0,0,0,50.5,309.52Zm15,3.5h45v2.91l-14.88,12.7-7.11-7.7a7.5,7.5,0,1,0-11,10.18l12,13a7.51,7.51,0,0,0,10.38.62l10.63-9.08V358h-45V313Z"/><path class="cls-2" d="M275,124.5H155a7.5,7.5,0,0,0,0,15H275a7.5,7.5,0,0,0,0-15Z"/><path class="cls-2" d="M275,156.5H155a7.5,7.5,0,0,0,0,15H275a7.5,7.5,0,0,0,0-15Z"/><path class="cls-2" d="M275,221.5H155a7.5,7.5,0,0,0,0,15H275a7.5,7.5,0,0,0,0-15Z"/><path class="cls-2" d="M275,253.5H155a7.5,7.5,0,0,0,0,15H275a7.5,7.5,0,0,0,0-15Z"/><path class="cls-2" d="M275,318.5H155a7.5,7.5,0,0,0,0,15H275a7.5,7.5,0,0,0,0-15Z"/><path class="cls-2" d="M275,350.5H155a7.5,7.5,0,0,0,0,15H275a7.5,7.5,0,0,0,0-15Z"/><path class="cls-2" d="M237,35.5H99a25,25,0,0,0,0,50H237a25,25,0,0,0,0-50Zm0,35H99a10,10,0,0,1,0-20H237a10,10,0,0,1,0,20Z"/></g></g></svg>