<svg xmlns="http://www.w3.org/2000/svg" viewBox="0 0 512 512"><defs><style>.cls-1{fill:#fdc511;}.cls-2{fill:#1b66af;}</style></defs><g id="Слой_2" data-name="Слой 2"><g id="Слой_1-2" data-name="Слой 1"><rect class="cls-1" x="15.03" y="431.84" width="481.94" height="65.13"/><circle class="cls-1" cx="135.77" cy="119.73" r="51.81"/><circle class="cls-1" cx="376.23" cy="119.73" r="51.81"/><circle class="cls-1" cx="135.77" cy="312.11" r="51.81"/><circle class="cls-1" cx="376.23" cy="312.11" r="51.81"/><path class="cls-2" d="M504.48,339a7.51,7.51,0,0,0,7.52-7.51V7.51A7.52,7.52,0,0,0,504.48,0H7.51A7.51,7.51,0,0,0,0,7.51v497A7.51,7.51,0,0,0,7.51,512h497a7.51,7.51,0,0,0,7.51-7.52V293.07a7.52,7.52,0,0,0-15,0V416.81H15V15H497V331.47A7.51,7.51,0,0,0,504.48,339ZM497,431.84V497H15V431.84Z"/><path class="cls-2" d="M215.92,112.22h-17a63.72,63.72,0,0,0-55.65-55.65v-17a7.52,7.52,0,1,0-15,0v17A63.73,63.73,0,0,0,72.6,112.22h-17a7.52,7.52,0,1,0,0,15h17a63.74,63.74,0,0,0,55.65,55.65v17a7.52,7.52,0,1,0,15,0v-17a63.73,63.73,0,0,0,55.65-55.65h17a7.52,7.52,0,1,0,0-15Zm-40.08,15h7.94a48.71,48.71,0,0,1-40.5,40.5v-7.94a7.52,7.52,0,0,0-15,0v7.94a48.71,48.71,0,0,1-40.5-40.5h7.93a7.52,7.52,0,1,0,0-15H87.75a48.71,48.71,0,0,1,40.5-40.5v7.93a7.52,7.52,0,1,0,15,0V71.72a48.72,48.72,0,0,1,40.5,40.5h-7.94a7.52,7.52,0,0,0,0,15Z"/><path class="cls-2" d="M456.39,112.22h-17a63.73,63.73,0,0,0-55.65-55.65v-17a7.52,7.52,0,1,0-15,0v17a63.72,63.72,0,0,0-55.65,55.65h-17a7.52,7.52,0,1,0,0,15h17a63.73,63.73,0,0,0,55.65,55.65v17a7.52,7.52,0,1,0,15,0v-17a63.74,63.74,0,0,0,55.65-55.65h17a7.52,7.52,0,1,0,0-15Zm-40.08,15h7.94a48.71,48.71,0,0,1-40.5,40.5v-7.94a7.52,7.52,0,0,0-15,0v7.94a48.71,48.71,0,0,1-40.5-40.5h7.93a7.52,7.52,0,1,0,0-15h-7.93a48.71,48.71,0,0,1,40.5-40.5v7.93a7.52,7.52,0,1,0,15,0V71.72a48.71,48.71,0,0,1,40.5,40.5h-7.94a7.52,7.52,0,0,0,0,15Z"/><path class="cls-2" d="M456.39,304.6h-17a63.74,63.74,0,0,0-55.65-55.66V232a7.52,7.52,0,0,0-15,0v17a63.73,63.73,0,0,0-55.65,55.66h-17a7.52,7.52,0,1,0,0,15h17a63.73,63.73,0,0,0,55.65,55.65v17a7.52,7.52,0,0,0,15,0v-17a63.74,63.74,0,0,0,55.65-55.65h17a7.52,7.52,0,1,0,0-15Zm-40.08,15h7.94a48.71,48.71,0,0,1-40.5,40.5v-7.93a7.52,7.52,0,1,0-15,0v7.93a48.71,48.71,0,0,1-40.5-40.5h7.93a7.52,7.52,0,1,0,0-15h-7.93a48.7,48.7,0,0,1,40.5-40.49V272a7.52,7.52,0,0,0,15,0V264.1a48.7,48.7,0,0,1,40.5,40.49h-7.94a7.52,7.52,0,0,0,0,15Z"/><path class="cls-2" d="M215.92,304.6h-17a63.73,63.73,0,0,0-55.65-55.66V232a7.52,7.52,0,0,0-15,0v17A63.74,63.74,0,0,0,72.6,304.6h-17a7.52,7.52,0,1,0,0,15h17a63.74,63.74,0,0,0,55.65,55.65v17a7.52,7.52,0,0,0,15,0v-17a63.73,63.73,0,0,0,55.65-55.65h17a7.52,7.52,0,1,0,0-15Zm-40.08,15h7.94a48.71,48.71,0,0,1-40.5,40.5v-7.93a7.52,7.52,0,1,0-15,0v7.93a48.71,48.71,0,0,1-40.5-40.5h7.93a7.52,7.52,0,1,0,0-15H87.75a48.7,48.7,0,0,1,40.5-40.49V272a7.52,7.52,0,0,0,15,0V264.1a48.71,48.71,0,0,1,40.5,40.49h-7.94a7.52,7.52,0,0,0,0,15Z"/><path class="cls-2" d="M296.08,448.88H215.92a7.51,7.51,0,0,0-7.51,7.51v24.05a7.51,7.51,0,0,0,7.51,7.51h80.16a7.51,7.51,0,0,0,7.51-7.51V456.39A7.51,7.51,0,0,0,296.08,448.88Zm-7.52,24H223.44v-9h65.12Z"/><path class="cls-2" d="M344.17,440.86a23.55,23.55,0,1,0,23.55,23.55A23.57,23.57,0,0,0,344.17,440.86Zm0,32.06a8.52,8.52,0,1,1,8.52-8.51A8.53,8.53,0,0,1,344.17,472.92Z"/><path class="cls-2" d="M408.3,440.86a23.55,23.55,0,1,0,23.54,23.55A23.57,23.57,0,0,0,408.3,440.86Zm0,32.06a8.52,8.52,0,1,1,8.51-8.51A8.52,8.52,0,0,1,408.3,472.92Z"/><path class="cls-2" d="M103.7,440.86a23.55,23.55,0,1,0,23.55,23.55A23.57,23.57,0,0,0,103.7,440.86Zm0,32.06a8.52,8.52,0,1,1,8.52-8.51A8.52,8.52,0,0,1,103.7,472.92Z"/><path class="cls-2" d="M167.83,440.86a23.55,23.55,0,1,0,23.54,23.55A23.58,23.58,0,0,0,167.83,440.86Zm0,32.06a8.52,8.52,0,1,1,8.52-8.51A8.52,8.52,0,0,1,167.83,472.92Z"/></g></g></svg>