<svg xmlns="http://www.w3.org/2000/svg" viewBox="0 0 490.84 511.09"><defs><style>.cls-1{fill:#1b66af;}.cls-2{fill:#fdc511;}</style></defs><g id="Слой_2" data-name="Слой 2"><g id="Слой_1-2" data-name="Слой 1"><path class="cls-1" d="M477.42,0c10.17,4.07,13.45,11.61,13.42,22.39q-.4,185.09-.14,370.17a15.86,15.86,0,0,1-5,12.29q-50.9,50.46-101.45,101.23a15.39,15.39,0,0,1-11.84,5C309.9,511,171.74,511,109.26,511a21.67,21.67,0,0,1-5-.21c-3.85-.95-6-3.53-5.89-7.56.12-3.82,2.32-6.2,6-7a25.62,25.62,0,0,1,5.48-.21H368.5V409.53c0-13.79,6.68-20.44,20.57-20.44h86.31c.1-2.2.26-4,.26-5.73q0-181.1.1-362.19c0-4.68-1.19-6.33-6.14-6.29-27.65.22-55.31.08-83,.14-4.19,0-8.2-.2-10-4.72s.72-7.54,3.83-10.29ZM463.18,404.29c-.75,0-2-.16-3.27-.16-23.49,0-47,.07-70.46-.13-4.6,0-6.05,1.37-6,6,.2,23.78.11,47.55.13,71.33,0,.91.1,1.83.13,2.35Z"/><path class="cls-1" d="M440.8,0c3.27,2.89,6.18,6.49,3.46,10.61-1.5,2.26-5.35,4.11-8.17,4.17-18.16.37-36.32.19-54.48.19H22.32c-7.16,0-7.17,0-7.17,7.09,0,116.07,0,291.83,0,407.9a29,29,0,0,1-.51,6.92c-1,3.94-3.88,5.73-7.87,5.33-3.78-.38-6-2.62-6.46-6.44a52.63,52.63,0,0,1-.13-5.48C.15,314.22.25,138.46,0,22.39,0,11.62,3.22,4.06,13.42,0Z"/><path class="cls-1" d="M193.92,175.78v-6.35q0-32.18,0-64.36c0-10.57,1.66-12.25,12-12.25h34.53c0-7,0-13.57,0-20.16.07-7.42,2.48-9.86,9.92-9.86q88.74,0,177.48,0c6.71,0,9.35,2.63,9.36,9.4q0,113.76,0,227.53c0,6.95-2.72,9.6-9.77,9.61q-43.25,0-86.49,0h-6.05v6.75q0,64.86,0,129.73c0,10.21-1.73,11.93-11.95,11.94q-97.74,0-195.47,0c-8.31,0-10.57-2.34-10.58-10.81,0-34.6-.06-69.19.07-103.79a11,11,0,0,0-3.63-8.72c-6.08-5.88-11.85-12.07-18.57-19-.26,2.55-.5,3.77-.5,5q0,58.89-.09,117.76c0,2.69.53,4.18,3.22,5.73,2,1.18,4.06,5,3.62,7.18-.49,2.42-3.53,5.69-5.87,6.08a53.63,53.63,0,0,1-16.87,0c-2.39-.38-5.64-3.62-6-6s1.74-6.07,3.89-7.52,3.11-2.72,3.11-5.31c-.06-44.74,0-89.48-.16-134.22a10.25,10.25,0,0,0-2.75-6.4C66.17,287.35,55.78,277,45.32,266.77a12.56,12.56,0,0,1-4-9.74q.14-66.37.06-132.73c0-7.5,2.35-9.92,9.77-9.94,12.83,0,25.66-.1,38.49.06,4.78.07,7.75,3.22,7.7,7.43,0,4-2.85,6.81-7.35,7.33a37.9,37.9,0,0,1-4,.13H56.41V135c0,38.92.05,77.84-.07,116.76A10.35,10.35,0,0,0,59.78,260C66,266,72,272.2,78.76,279c.23-2.25.47-3.47.47-4.68q0-39.42,0-78.84c0-2.61-.33-4.2-3.11-5.78-2.16-1.23-4.26-5.16-3.88-7.48s3.61-5.6,6-6a50.64,50.64,0,0,1,16.39-.06c2.46.39,5.37,3.3,6.44,5.77,1.45,3.35-.65,6.39-4,8.15-.85.45-1.77.75-2.91,1.22v47.9c0,16.8.09,33.6-.08,50.4a10.28,10.28,0,0,0,3.51,8.24c6.09,5.85,11.91,12,17.84,18l1.4-.39v-5.58q0-61.12,0-122.25c0-10,1.89-11.86,12-11.86h65Zm-61.65,64.64c11.29,0,22.25,0,33.21,0,6.86,0,9.36,2.41,9.42,9.27.09,11.48,0,23,0,34.43v10.26H181q40.5,0,81,0c5.81,0,9.31,2.88,9.28,7.45s-3.55,7.39-9.34,7.51c-1.17,0-2.33,0-3.5,0H131.93c0,6.65-.31,12.48.14,18.26a12.63,12.63,0,0,0,3.07,7.3c10.53,10.89,21.37,21.47,32.06,32.21,4.3,4.32,4.74,9,1.32,12.2s-7.68,2.6-11.85-1.52c-7.1-7-14.13-14.12-21.23-21.15a44.46,44.46,0,0,0-3.5-2.75c0,29.19,0,57.45,0,85.71,0,2.83,1.5,3.24,3.81,3.2,5.5-.09,11-.19,16.5,0,3.13.1,4.53-.72,5.42-4.09A50.33,50.33,0,0,1,202,401.31c9.42-.74,12.13,1.72,12.14,11.06,0,9.94,0,19.88,0,30.07H319.51V239.5H240.18a20.22,20.22,0,0,1-4.48-.16c-4.06-.91-6.5-3.4-6.29-7.73.2-4,2.61-6.32,6.54-7,1.4-.24,2.85-.25,4.24-.36V191.06H132.27Zm290-63.59c-11.87,0-22.85,0-33.84,0-6.55,0-9.05-2.54-9.08-9-.06-13.14,0-26.28,0-39.41V117H330.86c-8.93,0-10.9-1.94-10.93-10.78,0-9.28,0-18.55,0-28h-64v97.2h64V169.5c0-4.82-.07-9.65,0-14.47.12-5.54,2.89-8.84,7.29-9,4.57-.12,7.49,3.3,7.67,9.11.09,2.82.07,5.65.07,8.48q0,62.11,0,124.22c0,2.07.19,4.15.28,6.1h86.69V279.89h-6.25c-9.49,0-19,.11-28.49-.07-6-.12-8.8-3.48-8.35-9.29a51.07,51.07,0,0,1,34.68-44.59c8.76-2.92,8.76-2.92,8.76-12.12ZM422,78.06H335.26V102h5.61q21.47,0,42.94,0c8,0,10.53,2.47,10.54,10.34q0,21.93,0,43.86v5.38H422ZM240.12,175.54V108.1H209.29v67.44ZM159.5,294.19V255.73H132.33v38.46Zm39.27,148.32v-25.1c-11.57.92-25.69,14.76-25.92,25.1ZM422.06,239.75C410,241,396.67,253.63,395.79,264.42h26.27ZM255.9,190.91v33.35h10.8V190.91ZM293,224.32V191.18H282.51v33.14Zm26.56.05V191.21H308.81v33.16Z"/><path class="cls-1" d="M81.45,511Q50.73,511,20,511C7,511,.17,504.28.16,491.47q-.06-39.63,0-79.26a24.74,24.74,0,0,1,.22-4.48,6.68,6.68,0,0,1,6.5-5.84c3.74-.31,6.57,1.28,7.65,5a21.53,21.53,0,0,1,.62,5.9q.07,37.14.06,74.29c0,10.26-.59,9,9.24,9q59.19,0,118.39,0c1.33,0,2.66,0,4,0,5,.24,8.11,3.25,8,7.67-.11,4.2-3.15,7.16-7.9,7.23-8.49.14-17,.05-25.48.05Z"/><path class="cls-1" d="M103.92,68.19c-17.82,0-35.64,0-53.46,0-4.06,0-7.24-1.2-8.67-5.25A7.15,7.15,0,0,1,47,53.72,25,25,0,0,1,53,53.25q51.21,0,102.42,0c.83,0,1.66,0,2.49,0,5.79.21,9.11,3.11,9,7.79-.15,4.53-3.27,7.16-8.95,7.18-18,.06-36,0-53.95,0Z"/><path class="cls-1" d="M104.31,94.92c-18,0-36,0-54,0-5.5,0-8.78-2.83-8.89-7.29S44.66,80,50,80c9.32-.1,18.65,0,28,0,26.32,0,52.63-.1,79,.09,2.73,0,6.12,1,8,2.87,1.46,1.44,2.1,5.39,1.14,7.16-1.19,2.18-4.33,4.45-6.77,4.61-8.62.57-17.31.26-26,.27Q118.8,94.94,104.31,94.92Z"/><path class="cls-1" d="M383.36,343.51c-7,0-14,.07-20.94,0-5.22-.07-8.24-2.76-8.39-7.18s3.12-7.7,8.43-7.74q21.18-.13,42.37,0c5.49,0,8.65,3,8.64,7.53s-3.13,7.32-8.68,7.38C397.64,343.56,390.5,343.51,383.36,343.51Z"/><path class="cls-1" d="M370.11,355.31c2.82,0,5.66-.21,8.45.05,4.17.4,6.69,2.85,6.87,7.1s-2.27,7.21-6.34,7.54a137.32,137.32,0,0,1-18.37.08,7,7,0,0,1-6.62-7.83c.38-4.23,2.85-6.62,7.07-6.9C364.14,355.14,367.13,355.31,370.11,355.31Z"/><path class="cls-1" d="M128.38,121.73a7.5,7.5,0,0,1-15,0,7.3,7.3,0,0,1,7.21-7.39A7.43,7.43,0,0,1,128.38,121.73Z"/><path class="cls-2" d="M132.27,240.42V191.06H240.19v33.19c-1.39.11-2.84.12-4.24.36-3.93.67-6.34,2.95-6.54,7-.21,4.33,2.23,6.82,6.29,7.73a20.22,20.22,0,0,0,4.48.16h79.33V442.44H214.18c0-10.19,0-20.13,0-30.07,0-9.34-2.72-11.8-12.14-11.06a50.33,50.33,0,0,0-44.39,37.42c-.89,3.37-2.29,4.19-5.42,4.09-5.5-.19-11-.09-16.5,0-2.31,0-3.81-.37-3.81-3.2.05-28.26,0-56.52,0-85.71a44.46,44.46,0,0,1,3.5,2.75c7.1,7,14.13,14.12,21.23,21.15,4.17,4.12,8.54,4.63,11.85,1.52s3-7.88-1.32-12.2c-10.69-10.74-21.53-21.32-32.06-32.21a12.63,12.63,0,0,1-3.07-7.3c-.45-5.78-.14-11.61-.14-18.26h126.5c1.17,0,2.33,0,3.5,0,5.79-.12,9.31-3,9.34-7.51s-3.47-7.44-9.28-7.45q-40.49,0-81,0h-6.07V284.13c0-11.47.06-22.95,0-34.43-.06-6.86-2.56-9.25-9.42-9.27C154.52,240.4,143.56,240.42,132.27,240.42Zm100,99.88c10,0,20,.06,30,0,5.67,0,9.19-3.2,9-7.78s-3.51-7.18-9-7.18q-29.49,0-59,0c-5.9,0-9.21,2.73-9.21,7.42s3.38,7.49,9.21,7.52C212.91,340.34,222.57,340.3,232.24,340.3Zm42,84.77v0c6,0,12,.09,18,0,5.13-.1,8.24-2.94,8.35-7.31.1-4.6-3-7.55-8.49-7.59q-17.46-.12-34.92,0c-5.37,0-8.71,3.06-8.65,7.5s3.36,7.37,8.78,7.45C262.9,425.14,268.55,425.07,274.21,425.07Z"/><path class="cls-2" d="M422.26,176.83v37c0,9.2,0,9.2-8.76,12.12a51.07,51.07,0,0,0-34.68,44.59c-.45,5.81,2.37,9.17,8.35,9.29,9.5.18,19,.06,28.49.07h6.25V294H335.22c-.09-2-.28-4-.28-6.1q0-62.12,0-124.22c0-2.83,0-5.66-.07-8.48-.18-5.81-3.1-9.23-7.67-9.11-4.4.12-7.17,3.42-7.29,9-.1,4.82,0,9.65,0,14.47v5.87h-64V78.17h64c0,9.45,0,18.72,0,28,0,8.84,2,10.77,10.93,10.78h48.43v11.4c0,13.13,0,26.27,0,39.41,0,6.51,2.53,9,9.08,9C399.41,176.88,410.39,176.83,422.26,176.83Z"/><path class="cls-2" d="M422,78.06v83.51H394.32v-5.38q0-21.93,0-43.86c0-7.87-2.52-10.33-10.54-10.34q-21.46,0-42.94,0h-5.61V78.06Z"/><path class="cls-2" d="M240.12,175.54H209.29V108.1h30.83Z"/><path class="cls-2" d="M159.5,294.19H132.33V255.73H159.5Z"/><path class="cls-2" d="M198.77,442.51H172.85c.23-10.34,14.35-24.18,25.92-25.1Z"/><path class="cls-2" d="M422.06,239.75v24.67H395.79C396.67,253.63,410,241,422.06,239.75Z"/><path class="cls-2" d="M255.9,190.91h10.8v33.35H255.9Z"/><path class="cls-2" d="M293,224.32H282.51V191.18H293Z"/><path class="cls-2" d="M319.58,224.37H308.81V191.21h10.77Z"/><path class="cls-1" d="M232.24,340.3c-9.67,0-19.33,0-29,0-5.83,0-9.21-2.86-9.21-7.52s3.31-7.41,9.21-7.42q29.49-.06,59,0c5.5,0,8.85,2.75,9,7.18s-3.35,7.73-9,7.78C252.23,340.36,242.24,340.3,232.24,340.3Z"/><path class="cls-1" d="M274.21,425.07c-5.66,0-11.31.07-17,0-5.42-.08-8.72-3-8.78-7.45s3.28-7.46,8.65-7.5q17.46-.11,34.92,0c5.44,0,8.59,3,8.49,7.59-.11,4.37-3.22,7.21-8.35,7.31-6,.12-12,0-18,0Z"/></g></g></svg>