<svg xmlns="http://www.w3.org/2000/svg" viewBox="0 0 512 451.46"><defs><style>.cls-1{fill:#fcb143;}.cls-2{fill:#fdc511;}.cls-3{fill:#ff6930;}.cls-4{fill:#1b66af;}</style></defs><g id="Слой_2" data-name="Слой 2"><g id="Слой_1-2" data-name="Слой 1"><path class="cls-1" d="M152,187.85a23.13,23.13,0,1,1,23.13-23.13A23.14,23.14,0,0,1,152,187.85Z"/><path class="cls-2" d="M152,187.85a23.13,23.13,0,1,1,23.13-23.13A23.14,23.14,0,0,1,152,187.85Z"/><path class="cls-3" d="M153.45,79.72H152V141.6h.38a23.12,23.12,0,0,1,20.25,12.68l55.22-28A85,85,0,0,0,153.45,79.72Z"/><path class="cls-2" d="M153.45,79.72H152V141.6h.38a23.12,23.12,0,0,1,20.25,12.68l55.22-28A85,85,0,0,0,153.45,79.72Z"/><path class="cls-2" d="M22.53,7.51H385a12,12,0,0,1,12,12V53.8H7.51V22.53A15,15,0,0,1,22.53,7.51Z"/><path class="cls-2" d="M131,180.57H492.48a12,12,0,0,1,12,12v34.28H116V195.58a15,15,0,0,1,15-15Z"/><path class="cls-2" d="M247.53,406.94H191.84a6,6,0,0,1-6-6V323.35a5,5,0,0,1,5-5h56.69Z"/><path class="cls-2" d="M309.24,406.94H247.53V269.09a5,5,0,0,1,5-5h51.69a5,5,0,0,1,5,5Z"/><path class="cls-2" d="M309.24,361.89h61.7v45.05h-61.7Z"/><path class="cls-2" d="M426.63,406.94H370.94V339.87a5,5,0,0,1,5-5h51.69a5,5,0,0,1,5,5v61.06a6,6,0,0,1-6,6Z"/><circle class="cls-4" cx="35.93" cy="31.24" r="7.64"/><circle class="cls-4" cx="61.89" cy="31.24" r="7.64"/><circle class="cls-4" cx="87.86" cy="31.24" r="7.64"/><path class="cls-4" d="M492.48,173.06h-88V19.52A19.54,19.54,0,0,0,385,0H22.53A22.55,22.55,0,0,0,0,22.53V53.8a7.51,7.51,0,0,0,7.51,7.51h382V173.06H244.18c.25-2.77.38-5.56.38-8.34a91.94,91.94,0,0,0-9.74-41.29c-.07-.17-.15-.35-.24-.53a92.52,92.52,0,1,0-126.1,123.44v17H22.53A7.52,7.52,0,0,1,15,255.87V35A7.51,7.51,0,0,0,0,35V255.87A22.55,22.55,0,0,0,22.53,278.4h86V428.93A22.55,22.55,0,0,0,131,451.46H492.48A19.55,19.55,0,0,0,512,431.93V192.58A19.55,19.55,0,0,0,492.48,173.06ZM15,22.53A7.52,7.52,0,0,1,22.53,15H385a4.51,4.51,0,0,1,4.51,4.5V46.29H15Zm166.5,150.53a30.65,30.65,0,0,0,1.16-8.34,31,31,0,0,0-.75-6.72l42.3-21.43a76.95,76.95,0,0,1,4.85,36.49Zm-42.68,0a15.43,15.43,0,0,1-2.42-8.34A15.64,15.64,0,0,1,152,149.1a15.92,15.92,0,0,1,13.7,8l.15.29a15.58,15.58,0,0,1-.58,15.65ZM159.79,87.6a79.83,79.83,0,0,1,11.68,2.08,77.73,77.73,0,0,1,45.95,33.51L175.15,144.6a30.84,30.84,0,0,0-15.6-9.59V87.58l.24,0ZM74.54,164.72a77.6,77.6,0,0,1,70-77.13V135A30.61,30.61,0,0,0,123,174.52a22.56,22.56,0,0,0-14.54,21.06V228.8a77.91,77.91,0,0,1-33.94-64.08ZM492.48,436.44H131a7.52,7.52,0,0,1-7.51-7.51V234.36h278.3a7.51,7.51,0,1,0,0-15H123.49V195.58a7.51,7.51,0,0,1,7.51-7.5H492.48a4.51,4.51,0,0,1,4.5,4.5v26.77H388.82a7.51,7.51,0,1,0,0,15H497V431.93a4.51,4.51,0,0,1-4.5,4.51Z"/><circle class="cls-4" cx="144.4" cy="204.3" r="7.64"/><circle class="cls-4" cx="170.37" cy="204.3" r="7.64"/><circle class="cls-4" cx="196.33" cy="204.3" r="7.64"/><path class="cls-4" d="M427.63,327.35H376a12.53,12.53,0,0,0-12.52,12.52v14.51H316.75V269.09a12.53,12.53,0,0,0-12.52-12.51H252.54A12.52,12.52,0,0,0,240,269.09v41.75H190.84a12.53,12.53,0,0,0-12.52,12.51v77.59a13.53,13.53,0,0,0,13.52,13.51H426.63a13.53,13.53,0,0,0,13.52-13.51V339.87a12.53,12.53,0,0,0-12.52-12.52Zm-180.1,51a7.5,7.5,0,0,0-7.5,7.5v13.56H193.34V325.85H240v64.4a7.51,7.51,0,1,0,15,0V271.59h46.69V399.43H255V385.87a7.5,7.5,0,0,0-7.51-7.5Zm69.22-9h46.68v30H316.75Zm108.38,30H378.45V342.37h46.68Z"/></g></g></svg>