<svg xmlns="http://www.w3.org/2000/svg" xmlns:xlink="http://www.w3.org/1999/xlink" viewBox="0 0 140 140"><defs><style>.cls-1{fill:url(#Безымянный_градиент_2);}.cls-2{fill:#fff;}</style><linearGradient id="Безымянный_градиент_2" x1="15.23" y1="113.59" x2="121.58" y2="28.94" gradientUnits="userSpaceOnUse"><stop offset="0" stop-color="#ffc107"/><stop offset="0.51" stop-color="#f44336"/><stop offset="0.99" stop-color="#9c27b0"/></linearGradient></defs><g id="Слой_2" data-name="Слой 2"><g id="Слой_1-2" data-name="Слой 1"><circle class="cls-1" cx="70" cy="70" r="70"/><path class="cls-2" d="M85.2,36.09H54.8A18.73,18.73,0,0,0,36.09,54.8V85.2A18.73,18.73,0,0,0,54.8,103.91H85.2A18.73,18.73,0,0,0,103.91,85.2V54.8A18.73,18.73,0,0,0,85.2,36.09ZM97.9,85.2A12.72,12.72,0,0,1,85.2,97.9H54.8A12.72,12.72,0,0,1,42.1,85.2V54.8A12.72,12.72,0,0,1,54.8,42.1H85.2A12.72,12.72,0,0,1,97.9,54.8V85.2Z"/><path class="cls-2" d="M70,52.52A17.48,17.48,0,1,0,87.48,70,17.5,17.5,0,0,0,70,52.52Zm0,28.94A11.46,11.46,0,1,1,81.46,70,11.47,11.47,0,0,1,70,81.46Z"/><path class="cls-2" d="M88.21,47.42a4.4,4.4,0,1,0,3.12,1.29A4.45,4.45,0,0,0,88.21,47.42Z"/></g></g></svg>