<svg width="46" height="61" xmlns="http://www.w3.org/2000/svg" viewBox="0 0 406 534"><defs><style>.cls-1{fill:#fff;}.cls-2{fill:#1b66af;}.cls-3{fill:#acc927;}.cls-3,.cls-4,.cls-5,.cls-6{fill-rule:evenodd;}.cls-4{fill:#fcc500;}.cls-5{fill:#7ccdf3;}.cls-6{fill:#2366af;}</style></defs><g id="Слой_2" data-name="Слой 2"><g id="Слой_1-2" data-name="Слой 1"><path class="cls-1" d="M203,11C97.14,11,11,97.74,11,204.39c0,151.53,174,308,181.35,314.56a16.06,16.06,0,0,0,21.3,0c7.4-6.59,181.35-163,181.35-314.58C395,97.74,308.86,11,203,11Z"/><path class="cls-2" d="M203,534a27,27,0,0,1-17.95-6.83c-2-1.76-49.21-43.91-94.93-104.52C64,388,43.2,353.86,28.28,321.1,9.52,279.87,0,240.6,0,204.39,0,91.69,91.07,0,203,0S406,91.69,406,204.39c0,36.21-9.52,75.48-28.28,116.71C362.8,353.86,342,388,315.88,422.65,271.21,481.88,226,522.72,221,527.18A27.13,27.13,0,0,1,203,534Zm0-512C103.2,22,22,103.82,22,204.39c0,33,8.85,69.24,26.31,107.59,14.25,31.31,34.22,64.08,59.37,97.42,44.42,58.89,90.06,99.61,92,101.32A4.94,4.94,0,0,0,203,512a5,5,0,0,0,3.37-1.29c4.8-4.27,48.55-43.77,91.95-101.3,25.15-33.35,45.12-66.12,59.37-97.43C375.15,273.63,384,237.43,384,204.39,384,103.82,302.8,22,203,22Z"/><path class="cls-3" d="M283.11,278.45c-1-28.91,1-61,22.81-80.67a39.06,39.06,0,0,1,4.19-3.43c9.68-6.52,13.8-3.16,16.9,3,1.37,2.7,2.16,6,5.26,3.45-.38-5.86-.78-8.79-1.52-14.61-2.15-16.85-6.28-34.05-26.34-20.51a52,52,0,0,0-5.65,4.61c-29.36,26.4-32.07,69.64-30.68,108.55.39,11,1.16,22,1.93,33,.33,4.8,2.31,9.31,8.25,5.36,3.09-2,6.17-4.3,9.19-6.69a12.35,12.35,0,0,1-2.54-5.24,11.49,11.49,0,0,1-.36-2.25C284,294.81,283.41,286.64,283.11,278.45Z"/><path class="cls-4" d="M221.26,232.25c-.77-7.79-1.53-15.79-3-23.47-1.05-5.28-.17-7.44-2.6-12.24-5.66,9.06-8,15.74-21,17.74a7.48,7.48,0,0,1-4-.36c-3.84-1.81-7.81-4.82-11.18-7.4-17.67-13.53-34.37-25.72-54-36.54-10.5-4.7-28.29-15.46-39.85-10.25a13.4,13.4,0,0,0-3.28,2.08c-13.61,11.78-7.27,49.84-4.88,65.83,6.29,42.12,8.79,54,46.69,76.65,9.15,5.46,100.9,63.34,100.83,37,0-6.71-.25-13.43-.42-20.14q-.45-17.58-1-35.15-.51-16.44-1.18-32.88c-.29-7-.48-13.94-1.16-20.88ZM196.61,230c.65,6.56.81,13.18,1.09,19.76.46,10.89.83,21.78,1.17,32.67.41,12.86.75,25.72,1.1,38.59-2.44-1-4.86-2.05-7.24-3.14-13.64-6.27-27-13.9-39.85-21.58-7.59-4.53-15.16-9.11-22.76-13.64-32-19.1-31.65-26.26-37-62.24-1.21-8.09-5.3-35.24-2.31-45.69,5.85,1.45,16.56,7,21.09,9.11,18.08,10,34.47,22,50.86,34.55A82.46,82.46,0,0,0,177.6,228a27.34,27.34,0,0,0,15.66,2.06,30.53,30.53,0,0,0,3.29-.7Z"/><path class="cls-5" d="M218.78,131.3c9.76-.17,4.08.1,13.85.24,3.39.38,24.61,0,32.38,1.89,2.42-3.13,6.35-7.92,8-11.44,2.61-5.6-4.07-5.5-7.66-5.67-18.76-.89-37.54-1-56.31-.93-19.6,0-36.13.6-55.7.83-22.3,0-24,8.51-1,20.83,5.65,3,9,4.72,14.79,7.53,3.58,1.75,7.22,3.43,10.77,5.23,8.89,4.49,17.77,9,26.44,14,9,5.13,15.83,10.46,21,16.12,10.26,11.23,10.95,22.26,14.4,24.71,6.17-23.57-17.66-50.83-39.63-65.69C185.25,128.91,202.89,131.58,218.78,131.3Z"/><path class="cls-6" d="M348.21,178.3c-1.69-12.4-5.49-36.14-21.57-36.85-21.91-1-42.41,19.9-52.95,37.37C258.11,204.67,256,237.52,256.77,267c.48,18.92,2.15,36.09,3.29,54.78.19,3.07.68,7.52,3.67,9.25,5.07,2.94,17.6-5.9,21.45-8.83,13.89-10.54,29.47-23.15,40.45-36.49a97.22,97.22,0,0,0,20.86-43c4.62-21.48,4.69-42.62,1.72-64.36ZM238.12,248.66c.46,11,.83,22,1.18,32.92q.55,17.58,1,35.17c.17,6.73.4,13.47.42,20.21a11,11,0,0,1-2.73,7.68c-9.77,10.66-33.38,2.84-44.58-1.4-11.85-4.49-23.12-10.17-34.29-16.09-14.94-7.92-29.79-16-44.4-24.55-2.4-1.39-4.78-2.8-7.16-4.22-38.77-23.13-41.76-35.73-48.21-78.92-2-13.3-3.92-27.05-3.55-40.51.27-9.52,1.87-21.61,9.5-28.22,10-8.62,34.9-3.13,46.19.82,9.43,3.3,18.7,7.09,27.83,11.18,10.58,4.74,21,9.89,31.11,15.59,9,5.65,21.6,13,26.11,23.05a21.27,21.27,0,0,1,1.44,4.41,9.79,9.79,0,0,1-4.59,2,7.34,7.34,0,0,1-3.94-.36c-3.85-1.81-7.81-4.81-11.19-7.39-17.67-13.53-34.37-25.73-54-36.54C113.77,158.78,96,148,84.42,153.23a13.68,13.68,0,0,0-3.27,2.09c-13.61,11.77-7.27,49.84-4.89,65.83,6.3,42.12,8.79,54,46.7,76.65,2.36,1.41,4.74,2.81,7.12,4.2,2,1.16,3.95,2.38,5.92,3.57q4.84,3,9.72,5.87c8.61,5.13,17.31,10.14,26.17,14.83,5.13,2.72,10.32,5.34,15.6,7.76a144.38,144.38,0,0,0,14.44,5.85c5,1.68,15.58,4.88,19.95.36a7.52,7.52,0,0,0,1.9-5.43c0-6.72-.24-13.43-.41-20.14q-.45-17.58-1-35.15c-.35-11-.72-21.93-1.19-32.89-.29-7-.48-13.94-1.16-20.87-.76-7.79-1.52-15.8-3-23.47a55.59,55.59,0,0,0-5.92-17c-6-10.51-16.49-17.53-26.73-23.44-8.64-5-17.48-9.61-26.34-14.2-9.47-4.9-18.86-10-28.4-14.74-8.63-4.29-31.37-20-9.91-25.05,10.78-1.47,11.86-.47,22.72-.82,16.49-.53,33-.73,49.49-.76,16,0,31.92.11,47.87.6,2.86.09,5.74,0,8.6,0,3.44-.06,6.88-.1,10.32,0,5.51.11,19.19.52,22.27,6.09,1.81,3.26-.44,7.65-2.2,10.43a157.49,157.49,0,0,1-11,14.86c-3.74,4.59-7.6,9.08-11.41,13.63a22.31,22.31,0,0,1-8.2,2.68c-1.05.1-3.76.18-4.41-.9s1.18-3.47,1.8-4.22c4.52-5.36,9-10.8,13.29-16.32,2.35-3,4.66-6,6.87-9.13a29.4,29.4,0,0,0,2.72-4.36,3.86,3.86,0,0,0,.29-3.46,4,4,0,0,0-3-1.76,35,35,0,0,0-4.91-.45c-18.76-.88-37.54-1-56.32-.93-16.2,0-32.41.23-48.62.74-3.34.11-6.7.09-10.05.13-22.3,0-23.35,7.28-.39,19.6,5.64,3,11.37,5.91,17.12,8.72,3.58,1.75,7.22,3.44,10.77,5.23,8.89,4.5,17.77,9,26.43,14,38.58,21.93,36.76,47.54,38.44,87.33Zm67.57-92.16c21.49-14.23,25.92,3.86,28.22,21.56,1.82,14.06,2.91,28.34,2,42.5-.79,12.18-2.55,23.62-6,34.3-6.42,19.69-16.79,31.55-31.7,44.94a170,170,0,0,1-20.48,15.95c-6.36,4.14-8.48-.59-8.84-5.63-.82-11.55-1.65-23.11-2.07-34.68-1.49-40.89,1.41-86.34,32.86-114.09A56.58,56.58,0,0,1,305.69,156.5Z"/></g></g></svg>