<svg xmlns="http://www.w3.org/2000/svg" viewBox="0 0 463.91 512"><defs><style>.cls-1{fill:#1b66af;}</style></defs><g id="Слой_2" data-name="Слой 2"><g id="Capa_1" data-name="Capa 1"><path class="cls-1" d="M457,455.8l-14.66-14.66a55.27,55.27,0,0,0-26.68-14.84,15.72,15.72,0,0,0,.14-2V135.76a15.53,15.53,0,0,0-15.52-15.52H111.71a15.53,15.53,0,0,0-15.52,15.52V368.22a7.5,7.5,0,0,0,15,0V135.76a.52.52,0,0,1,.52-.52H216.44v88.69a7.49,7.49,0,0,0,7.5,7.5h64.13a7.5,7.5,0,0,0,7.5-7.5V135.24H400.29a.52.52,0,0,1,.52.52V424.34a.51.51,0,0,1-.52.51H159.8a7.5,7.5,0,0,0,0,15H403a40.31,40.31,0,0,1,28.7,11.9l14.67,14.66a8.53,8.53,0,0,1-12.07,12.06l-14.66-14.66A23.72,23.72,0,0,0,403,456.92H134.65a63.48,63.48,0,0,0-55.52-71.69V66.92a23.57,23.57,0,0,0-4.95-26l-34-34A23.53,23.53,0,0,0,6.89,40.17l34,34a23.46,23.46,0,0,0,16.64,6.88,23.8,23.8,0,0,0,6.59-.94V385.23a63.61,63.61,0,1,0,66.58,86.69H403a8.59,8.59,0,0,1,6,2.5l14.66,14.65A23.53,23.53,0,1,0,457,455.8ZM280.57,216.44H231.44v-81.2h49.13ZM63.57,63.58a8.55,8.55,0,0,1-12.06,0l-34-34A8.53,8.53,0,1,1,29.57,17.5l34,34A8.54,8.54,0,0,1,63.57,63.58ZM71.63,497a48.62,48.62,0,1,1,48.61-48.61A48.66,48.66,0,0,1,71.63,497Z"/><path class="cls-1" d="M71.63,416.84a31.55,31.55,0,1,0,31.55,31.55A31.58,31.58,0,0,0,71.63,416.84Zm0,48.1a16.55,16.55,0,1,1,16.55-16.55A16.57,16.57,0,0,1,71.63,464.94Z"/><path class="cls-1" d="M223.93,360.73H159.81a7.5,7.5,0,1,0,0,15h64.12a7.5,7.5,0,1,0,0-15Z"/><path class="cls-1" d="M256,328.66H159.81a7.5,7.5,0,0,0,0,15H256a7.5,7.5,0,0,0,0-15Z"/></g></g></svg>