<svg xmlns="http://www.w3.org/2000/svg" viewBox="0 0 480.02 512.05"><defs><style>.cls-1{fill:#1b66af;}</style></defs><g id="Слой_2" data-name="Слой 2"><g id="Capa_1" data-name="Capa 1"><path class="cls-1" d="M464.72,414.09c-10.79-15.8-25.83-26.77-43.5-31.72l-.52-.13-63.82-13.35L339.7,342.84l-.28-.39a16,16,0,0,0-22.93-2.79l-.16.13L240,405.49l-76.33-65.7-.15-.13a16,16,0,0,0-22.93,2.79l-.28.39-17.18,26.05L59.32,382.24l-.52.13c-17.67,4.95-32.72,15.92-43.5,31.72A88,88,0,0,0,0,463.19V483c0,16,14.35,29,32,29H448c17.65,0,32-13,32-29V463.19A88,88,0,0,0,464.72,414.09Zm-138.11-62,15.67,23.77-55.23,75.95L269.67,434.4h0l-17.9-17.9Zm-94.6,120h16c.48,0,1,0,1.43,0l4.81,24H225.77l4.81-24C231.05,472,231.53,472.05,232,472.05Zm24-24a8,8,0,0,1-8,8H232a8,8,0,0,1-8-8v-4.69l16-16,16,16v4.69Zm-102.6-96,74.85,64.43-17.9,17.9h0L193,451.77l-55.23-75.94ZM16,483V463.19c0-25.88,16.1-56.58,46.87-65.34l61.71-12.91,61,83.82a8,8,0,0,0,5.84,3.27l.63,0a8,8,0,0,0,5.65-2.34l12.27-12.26a24,24,0,0,0,5.63,8.05l-6.11,30.55H32C23.18,496.05,16,490.21,16,483Zm448,0c0,7.17-7.18,13-16,13H270.57l-6.11-30.55a24.09,24.09,0,0,0,5.63-8.05l12.27,12.26a8,8,0,0,0,5.65,2.34l.63,0a8,8,0,0,0,5.84-3.27l61-83.82,61.71,12.91C447.92,406.61,464,437.32,464,463.2Z"/><path class="cls-1" d="M104,254.69v97.38a8,8,0,0,0,16,0v-96h7.33a157.78,157.78,0,0,0,27.3,51.3c23.27,28.82,53.62,44.69,85.46,44.69,24.66,0,48.59-9.59,69.21-27.74l.28-.28c1.28.09,2.56.14,3.85.14a64.39,64.39,0,0,0,28.1-6.68c30.2-14.62,50.49-48.95,50.49-85.43v-48a24,24,0,0,0-24-24h-3.28c17.73-67.61,9.7-123.11,2.6-139.25a.59.59,0,0,1,0-.08c-.07-.15-.15-.3-.23-.45l-.14-.27-.25-.38-.2-.3c-.07-.09-.14-.19-.22-.28s-.18-.23-.28-.34l-.19-.2-.36-.36-.17-.14a4.87,4.87,0,0,0-.42-.35l-.19-.14-.44-.29-.25-.14-.41-.23-.32-.14-.38-.16-.37-.13-.36-.11-.37-.09-.39-.08-.34,0-.45-.05h-.8l-.25,0a5.29,5.29,0,0,0-.56.05h-.08c-20.06,2.86-44.35-2-70.06-7.18C245.7.28,201.14-8.64,166.31,16.2a8,8,0,0,0-1.62-.16C129,16,104,45.64,104,88c0,19.63,5,49.44,9.34,72H112a24,24,0,0,0-24,24v48A24.05,24.05,0,0,0,104,254.69Zm230.55,48.39c-16.88,8.17-34.19,6.48-48.86-4.74A23.77,23.77,0,0,0,288,288.06a24,24,0,1,0-13.65,21.66,8.4,8.4,0,0,0,.69.62,66.29,66.29,0,0,0,14.86,8.93c-15.45,11-32.48,16.78-49.82,16.78-26.91,0-52.84-13.76-73-38.74-19.91-24.65-31.33-57.28-31.33-89.52v-9.11c0-28.5,16.16-67,21.66-79.24,55.27-6.49,99.31,0,126.77,6.7,24.09,5.89,39.9,12.94,45.59,15.7l14.43,34.33v31.68a146.14,146.14,0,0,1-21.67,76,8,8,0,1,0,13.6,8.43,160,160,0,0,0,16.53-36.22H368a24.13,24.13,0,0,0,4.52-.43C366.36,276.43,352.44,294.43,334.55,303.08Zm-62.54-15a8,8,0,1,1-8-8A8,8,0,0,1,272,288.06Zm104-104v48a8,8,0,0,1-8,8H356.84a158.56,158.56,0,0,0,3.36-32.21V176.06H368A8,8,0,0,1,376,184.06ZM164.69,32a8.16,8.16,0,0,0,2.22-.32A8,8,0,0,0,174,30.41c29.37-22.32,71.23-13.91,111.71-5.78C306.9,28.89,327.21,33,346,33q4.33,0,8.56-.32c4.92,17.76,9.58,62.53-3.83,117.68l-7.31-17.39a8,8,0,0,0-3.51-3.9c-2.95-1.63-73.62-39.77-188.9-24.94h0l-.46.09-.34.06-.29.09a7.69,7.69,0,0,0-2.5,1.19h0l-.18.15a7.89,7.89,0,0,0-1.43,1.4l-.05.06-.23.33-.22.33a2,2,0,0,0-.14.25,5.05,5.05,0,0,0-.25.45l0,0a333.29,333.29,0,0,0-16.72,43.29C124.1,130.71,120,104.9,120,88,120,49.35,142.45,32,164.69,32ZM104,184.06a8,8,0,0,1,8-8h4.59c1.51,7.14,2.69,12.34,3.16,14.42v17.31a158.1,158.1,0,0,0,3.39,32.27H112a8,8,0,0,1-8-8Z"/></g></g></svg>