<svg xmlns="http://www.w3.org/2000/svg" viewBox="0 0 383.74 512"><defs><style>.cls-1{fill:#1b66af;}</style></defs><g id="Слой_2" data-name="Слой 2"><g id="Capa_1" data-name="Capa 1"><path class="cls-1" d="M376.24,91.05a7.5,7.5,0,0,0-7.5,7.5V496.48a.51.51,0,0,1-.51.52H15.52a.52.52,0,0,1-.52-.52v-481a.52.52,0,0,1,.52-.52h265V87.66a15.54,15.54,0,0,0,15.52,15.52h80.16a7.5,7.5,0,0,0,5.31-12.8L293.37,2.2,293.18,2h0l0,0h0a7.48,7.48,0,0,0-5-2H15.52A15.53,15.53,0,0,0,0,15.52v481A15.53,15.53,0,0,0,15.52,512H368.23a15.53,15.53,0,0,0,15.51-15.51V98.55A7.5,7.5,0,0,0,376.24,91.05ZM295.56,25.61l62.58,62.57H296.08a.52.52,0,0,1-.52-.52Z"/><path class="cls-1" d="M335.64,183.86a7.49,7.49,0,0,0-7.5-7.5H55.6a7.49,7.49,0,0,0-7.5,7.5V328.15a7.5,7.5,0,0,0,7.5,7.5H328.15a7.5,7.5,0,0,0,7.5-7.5V183.86ZM192.39,320.65H63.1v-33.1H192.39Zm0-48.1H63.1v-33.1H192.39Zm0-48.1H63.1V191.36H192.39Zm64.13,96.2H207.39v-33.1h49.13Zm0-48.1H207.39v-33.1h49.13Zm0-48.1H207.39V191.36h49.13Zm64.12,96.2H271.52v-33.1h49.12Zm0-48.1H271.52v-33.1h49.12Zm0-48.1H271.52V191.36h49.12Z"/><path class="cls-1" d="M191.87,360.73a47.58,47.58,0,1,0,47.58,47.58A47.63,47.63,0,0,0,191.87,360.73Zm0,80.16a32.58,32.58,0,1,1,32.58-32.58A32.62,32.62,0,0,1,191.87,440.89Z"/><path class="cls-1" d="M191.87,392.79a15.52,15.52,0,1,0,15.52,15.52A15.54,15.54,0,0,0,191.87,392.79Z"/><path class="cls-1" d="M119.72,384.78H55.6a7.5,7.5,0,0,0,0,15h64.12a7.5,7.5,0,1,0,0-15Z"/><path class="cls-1" d="M119.72,416.84H71.63a7.5,7.5,0,0,0,0,15h48.09a7.5,7.5,0,0,0,0-15Z"/><path class="cls-1" d="M320.13,376.76H272a15.53,15.53,0,0,0-15.51,15.52v32.06A15.53,15.53,0,0,0,272,439.86h48.1a15.54,15.54,0,0,0,15.52-15.52V392.28A15.55,15.55,0,0,0,320.13,376.76Zm.51,47.58a.52.52,0,0,1-.51.52H272a.51.51,0,0,1-.51-.52V392.28a.51.51,0,0,1,.51-.52h48.1a.51.51,0,0,1,.51.52Z"/><path class="cls-1" d="M138.37,56.12h-16a7.5,7.5,0,1,0,0,15h16a7.5,7.5,0,0,0,0-15Z"/><path class="cls-1" d="M90.27,56.12H58.21a7.5,7.5,0,1,0,0,15H90.27a7.5,7.5,0,0,0,0-15Z"/><path class="cls-1" d="M162.42,88.18H58.21a7.5,7.5,0,0,0,0,15H162.42a7.5,7.5,0,1,0,0-15Z"/><path class="cls-1" d="M162.42,120.24h-16a7.5,7.5,0,1,0,0,15h16a7.5,7.5,0,0,0,0-15Z"/><path class="cls-1" d="M114.32,120.24H58.21a7.5,7.5,0,1,0,0,15h56.11a7.5,7.5,0,0,0,0-15Z"/></g></g></svg>