<svg xmlns="http://www.w3.org/2000/svg" viewBox="0 0 456 512"><defs><style>.cls-1{fill:#1b66af;}</style></defs><g id="Слой_2" data-name="Слой 2"><g id="Capa_1" data-name="Capa 1"><path class="cls-1" d="M278.06,170.79a87.94,87.94,0,0,1,64.72,70.52,8,8,0,0,0,7.88,6.67,7.54,7.54,0,0,0,1.33-.11,8,8,0,0,0,6.57-9.21,104,104,0,0,0-76.5-83.36,8,8,0,0,0-4,15.49Z"/><path class="cls-1" d="M134.63,422.63a32,32,0,0,0,4.94-38.89l26.14-26.13A135.44,135.44,0,0,0,256,392c75,0,136-61,136-136S331,120,256,120,120,181,120,256a135.44,135.44,0,0,0,34.39,90.29l-26.13,26.14a32,32,0,0,0-38.89,4.94l-80,80a32,32,0,0,0,45.26,45.26l80-80ZM256,136A120,120,0,1,1,136,256,120.13,120.13,0,0,1,256,136ZM123.31,411.31h0l-80,80a16,16,0,1,1-22.62-22.62l80-80a16,16,0,1,1,22.62,22.62Z"/><path class="cls-1" d="M456,111.21c0-.11,0-.22,0-.34s0-.29-.07-.44-.06-.25-.09-.38-.06-.25-.1-.37a2.84,2.84,0,0,0-.13-.38c0-.12-.08-.24-.13-.36a3.54,3.54,0,0,0-.16-.34,2.53,2.53,0,0,0-.18-.37c-.05-.11-.12-.21-.18-.32s-.14-.24-.22-.35a4,4,0,0,0-.24-.33c-.08-.1-.14-.21-.22-.3s-.32-.37-.49-.54l0,0-104-104h0a7.47,7.47,0,0,0-.8-.69l-.2-.15a10.07,10.07,0,0,0-.88-.56l-.07,0a8.11,8.11,0,0,0-.91-.4L346.6.44a7.52,7.52,0,0,0-1-.29h0a7.88,7.88,0,0,0-1-.12l-.27,0H80A24,24,0,0,0,56,24V368a8,8,0,0,0,16,0V24a8,8,0,0,1,8-8H336V96a24,24,0,0,0,24,24h48a8,8,0,0,0,0-16H360a8,8,0,0,1-8-8V27.31l88,88V488a8,8,0,0,1-8,8H88a8,8,0,0,0,0,16H432a24,24,0,0,0,24-24V112A7,7,0,0,0,456,111.21Z"/><path class="cls-1" d="M328,256a8,8,0,0,0-8-8H160a8,8,0,0,0,0,16H320A8,8,0,0,0,328,256Z"/><path class="cls-1" d="M336,288H184a8,8,0,0,0,0,16H336a8,8,0,0,0,0-16Z"/><path class="cls-1" d="M184,224H304a8,8,0,0,0,0-16H184a8,8,0,0,0,0,16Z"/></g></g></svg>