<svg xmlns="http://www.w3.org/2000/svg" viewBox="0 0 512 512"><defs><style>.cls-1{fill:#1b66af;}</style></defs><g id="Слой_2" data-name="Слой 2"><g id="Capa_1" data-name="Capa 1"><path class="cls-1" d="M437,75A256,256,0,0,0,75,437,256,256,0,0,0,437,75ZM425.71,425.71A240,240,0,0,1,86.29,86.29,240,240,0,0,1,425.71,425.71Z"/><path class="cls-1" d="M393,119A24,24,0,0,0,359,119l-12.69,12.69A8,8,0,0,0,357.66,143l12.69-12.69a8,8,0,0,1,11.31,0,8,8,0,0,1,0,11.31l-240,240a8,8,0,0,1-11.31,0,8,8,0,0,1,0-11.31L335,165.66a8,8,0,0,0-11.31-11.32L119,359A24,24,0,1,0,153,393L393,153A24,24,0,0,0,393,119Z"/><path class="cls-1" d="M168,240a72,72,0,1,0-72-72A72.08,72.08,0,0,0,168,240Zm0-128a56,56,0,1,1-56,56A56.06,56.06,0,0,1,168,112Z"/><path class="cls-1" d="M344,272a72,72,0,1,0,72,72A72.08,72.08,0,0,0,344,272Zm0,128a56,56,0,1,1,56-56A56.06,56.06,0,0,1,344,400Z"/><path class="cls-1" d="M168,208a40,40,0,0,0,38.73-50,8,8,0,0,0-15.49,4,24.42,24.42,0,0,1,.76,6,24,24,0,1,1-18-23.24,8,8,0,0,0,4-15.5A40,40,0,1,0,168,208Z"/><path class="cls-1" d="M373,328.23a8,8,0,0,0-5.74,9.74,24.36,24.36,0,0,1,.76,6,24,24,0,1,1-18-23.24,8,8,0,0,0,4-15.5A40,40,0,1,0,382.73,334,8,8,0,0,0,373,328.23Z"/></g></g></svg>