<svg xmlns="http://www.w3.org/2000/svg" viewBox="0 0 74.51 64.57"><defs><style>.cls-1,.cls-2{fill:none;stroke-linejoin:round;}.cls-1{stroke:#fdc511;}.cls-2{stroke:#1e66af;}</style></defs><g id="Слой_2" data-name="Слой 2"><g id="Слой_1-2" data-name="Слой 1"><line class="cls-1" x1="31.27" y1="23.09" x2="45.72" y2="23.09"/><line class="cls-1" x1="45.72" y1="26.71" x2="60.16" y2="26.71"/><line class="cls-1" x1="63.47" y1="26.71" x2="67.57" y2="26.71"/><line class="cls-1" x1="25.02" y1="23.09" x2="28.18" y2="23.09"/><polyline class="cls-1" points="32.69 36.47 25.02 36.47 25.02 9.7 54.63 9.7"/><polyline class="cls-1" points="57.07 14.46 61.82 9.7 67.57 9.7 67.57 36.47 39.87 36.47"/><line class="cls-1" x1="45.72" y1="15.53" x2="45.72" y2="36.47"/><line class="cls-1" x1="45.72" y1="9.7" x2="45.72" y2="12.36"/><line class="cls-1" x1="53.24" y1="26.71" x2="53.24" y2="29.98"/><line class="cls-1" x1="53.24" y1="33.2" x2="53.24" y2="36.47"/><rect class="cls-2" x="0.5" y="0.5" width="73.51" height="53.27" rx="3.77"/><line class="cls-2" x1="0.5" y1="42.3" x2="74.01" y2="42.3"/><path class="cls-2" d="M38.89,48.21a1.64,1.64,0,1,1-1.63-1.64A1.63,1.63,0,0,1,38.89,48.21Z"/><line class="cls-2" x1="35.91" y1="3.94" x2="38.6" y2="3.94"/><line class="cls-2" x1="28.05" y1="53.77" x2="25.84" y2="64.07"/><line class="cls-2" x1="46.46" y1="53.77" x2="48.67" y2="64.07"/><line class="cls-2" x1="56.18" y1="64.07" x2="18.33" y2="64.07"/><line class="cls-2" x1="7.14" y1="9.7" x2="11.95" y2="9.7"/><line class="cls-2" x1="7.14" y1="16.65" x2="10.16" y2="16.65"/><line class="cls-2" x1="12.96" y1="16.65" x2="17.62" y2="16.65"/><line class="cls-2" x1="7.14" y1="26.84" x2="12.02" y2="26.84"/><line class="cls-2" x1="14.81" y1="26.84" x2="17.62" y2="26.84"/><line class="cls-2" x1="17.9" y1="13.18" x2="18.7" y2="13.18"/><line class="cls-2" x1="7.14" y1="13.18" x2="14.59" y2="13.18"/><line class="cls-2" x1="7.14" y1="30.37" x2="14.59" y2="30.37"/></g></g></svg>