<svg xmlns="http://www.w3.org/2000/svg" viewBox="0 0 73.04 63.42"><defs><style>.cls-1,.cls-2{fill:none;stroke-linejoin:round;}.cls-1{stroke:#1e66af;}.cls-2{stroke:#fdc511;stroke-linecap:round;}</style></defs><g id="Слой_2" data-name="Слой 2"><g id="Слой_1-2" data-name="Слой 1"><path class="cls-1" d="M67.38,20.74l-1.86,2.17a2.12,2.12,0,0,1-3.24,0l-1.86-2.17"/><path class="cls-1" d="M46.27,33.58H49.8a1.52,1.52,0,0,1,1.51,1.51h0A1.51,1.51,0,0,1,49.8,36.6H3.53A1.51,1.51,0,0,1,2,35.09H2a1.52,1.52,0,0,1,1.51-1.51H37"/><line class="cls-1" x1="41.29" y1="33.58" x2="43.33" y2="33.58"/><line class="cls-1" x1="4.36" y1="33.58" x2="4.36" y2="3.69"/><line class="cls-1" x1="49.54" y1="20.29" x2="49.54" y2="33.58"/><line class="cls-1" x1="49.54" y1="3.69" x2="49.54" y2="15.98"/><path class="cls-1" d="M68.32,13.85A4.42,4.42,0,1,1,63.9,9.43,4.42,4.42,0,0,1,68.32,13.85Z"/><path class="cls-1" d="M14.1,50.17A4.57,4.57,0,1,1,9.54,45.6,4.56,4.56,0,0,1,14.1,50.17Z"/><path class="cls-1" d="M69.44,28.76v8.62A1.54,1.54,0,0,0,71,38.93h0a1.54,1.54,0,0,0,1.55-1.55V27a6.62,6.62,0,0,0-6.6-6.6H58.62L49.5,16.14a1.77,1.77,0,0,0-2.19.59h0a1.75,1.75,0,0,0,.53,2.52l10.73,6.53V55.16H68.89V42"/><line class="cls-1" x1="63.9" y1="54.61" x2="63.9" y2="38.93"/><path class="cls-1" d="M30.62,50.17a4.57,4.57,0,1,1-4.56-4.57A4.56,4.56,0,0,1,30.62,50.17Z"/><path class="cls-1" d="M47.14,50.17a4.56,4.56,0,1,1-4.56-4.57A4.56,4.56,0,0,1,47.14,50.17Z"/><path class="cls-1" d="M51.62,63.42a6.1,6.1,0,0,0-6.08-6.08H39.62a6.1,6.1,0,0,0-5.3,3.12A6.1,6.1,0,0,0,29,57.34H23.1a6.1,6.1,0,0,0-5.3,3.12,6.11,6.11,0,0,0-5.3-3.12H6.58A6.1,6.1,0,0,0,.5,63.42"/><line class="cls-1" x1="61.59" y1="32.81" x2="69.44" y2="32.81"/><path class="cls-1" d="M9.54,3.52h-6A1.52,1.52,0,0,1,2,2H2A1.52,1.52,0,0,1,3.53.5H49.8A1.52,1.52,0,0,1,51.31,2h0A1.52,1.52,0,0,1,49.8,3.52H13.5"/><line class="cls-1" x1="45.44" y1="27.3" x2="43.6" y2="29.14"/><line class="cls-1" x1="9.56" y1="7.67" x2="7.72" y2="9.51"/><rect class="cls-2" x="12.27" y="9.47" width="28.79" height="18.33"/><line class="cls-2" x1="12.27" y1="17.47" x2="41.06" y2="17.47"/><line class="cls-2" x1="16.52" y1="20.56" x2="36.81" y2="20.56"/><path class="cls-2" d="M18.28,13.39a1.05,1.05,0,1,1-1.05-1.05A1,1,0,0,1,18.28,13.39Z"/><path class="cls-2" d="M24.57,13.39a1.05,1.05,0,1,1-1.05-1.05A1,1,0,0,1,24.57,13.39Z"/><path class="cls-2" d="M30.86,13.39a1,1,0,1,1-1.05-1.05A1,1,0,0,1,30.86,13.39Z"/><path class="cls-2" d="M37.15,13.39a1,1,0,1,1-1-1.05A1,1,0,0,1,37.15,13.39Z"/></g></g></svg>