<svg xmlns="http://www.w3.org/2000/svg" viewBox="0 0 62.99 62.8"><defs><style>.cls-1,.cls-2{fill:none;stroke-linejoin:round;}.cls-1{stroke:#1e66af;}.cls-2{stroke:#fdc511;stroke-linecap:round;}</style></defs><g id="Слой_2" data-name="Слой 2"><g id="Слой_1-2" data-name="Слой 1"><path class="cls-1" d="M28.11,21.61a4.64,4.64,0,0,0-3.6,1.7v-9H5.35A4.85,4.85,0,0,0,.5,19.14V38.29H9.39a4.7,4.7,0,1,1,6.23,0h8.89V29.22a4.65,4.65,0,1,0,3.6-7.61Z"/><path class="cls-1" d="M9.39,38.29H.5V57.45A4.85,4.85,0,0,0,5.35,62.3H24.51V53.41a4.69,4.69,0,1,1,0-6.23V38.29H15.62"/><path class="cls-1" d="M24.51,53.41V62.3H43.67a4.85,4.85,0,0,0,4.85-4.85V38.29H39.63a4.7,4.7,0,1,1-6.23,0H24.51v8.89"/><path class="cls-2" d="M57.17,4a4.85,4.85,0,0,0-6-3.32L32.76,6l2.47,8.53a4.7,4.7,0,1,1,1.73,6l2.46,8.54,8.34-2.4a4.7,4.7,0,0,0-.42,3.63,4.75,4.75,0,1,0,6.84-5.49l8.31-2.4Z"/></g></g></svg>