<svg xmlns="http://www.w3.org/2000/svg" viewBox="0 0 62.92 63.07"><defs><style>.cls-1,.cls-2{fill:none;stroke-linecap:round;stroke-linejoin:round;}.cls-1{stroke:#1e66af;}.cls-2{stroke:#fdc511;}</style></defs><g id="Слой_2" data-name="Слой 2"><g id="Слой_1-2" data-name="Слой 1"><path class="cls-1" d="M16.15,37a16.07,16.07,0,1,1,9.15,9.47"/><path class="cls-1" d="M20.66,51.77a22.69,22.69,0,0,0,5.32,2l.67,8.8H35.8l.67-8.77a22.72,22.72,0,0,0,7.1-3l6.17,5.3,6.47-6.47-5.37-6.25a22.75,22.75,0,0,0,2.69-6.6l8.89-.67V27l-8.89-.67a22.75,22.75,0,0,0-2.69-6.6l5.37-6.25L49.74,7l-6.17,5.3a22.58,22.58,0,0,0-7-3L35.86.5H26.71L26,9.29a22.71,22.71,0,0,0-7.08,3L12.77,7,6.3,13.44l5.41,6.3A22.55,22.55,0,0,0,9,26.31L.5,27v9.15L9,36.76a23,23,0,0,0,1.79,5"/><path class="cls-1" d="M1.57,58.57h0A4.5,4.5,0,0,0,7,61.9"/><path class="cls-2" d="M21.37,36.28,4.26,51.76a4.51,4.51,0,0,0,0,6.36h0a4.5,4.5,0,0,0,6.37,0L26.11,41"/><circle class="cls-2" cx="8.12" cy="54.27" r="2.5"/><path class="cls-2" d="M21.83,36A10.52,10.52,0,0,1,36.1,21.92L29,29.05a2.12,2.12,0,0,0,0,3l1.39,1.38a2.11,2.11,0,0,0,3,0l7.14-7.13A10.52,10.52,0,0,1,26.35,40.56a15.14,15.14,0,0,1-2.61-1.91"/><line class="cls-1" x1="59.52" y1="26.79" x2="59.52" y2="31.21"/><line class="cls-1" x1="35.77" y1="3.05" x2="30.61" y2="3.05"/><line class="cls-1" x1="3.96" y1="36.28" x2="3.96" y2="31.21"/><line class="cls-1" x1="35.51" y1="59.44" x2="30.61" y2="59.44"/><line class="cls-1" x1="53.89" y1="16.15" x2="50.16" y2="12.41"/><line class="cls-1" x1="8.62" y1="16.15" x2="12.13" y2="12.64"/><line class="cls-1" x1="46.97" y1="53.72" x2="50.22" y2="50.46"/></g></g></svg>