<svg xmlns="http://www.w3.org/2000/svg" viewBox="0 0 102.27 98.79"><defs><style>.cls-1,.cls-2{fill:none;stroke-linejoin:round;stroke-width:1.25px;}.cls-1{stroke:#1e66af;stroke-linecap:round;}.cls-2{stroke:#fdc511;}</style></defs><g id="Слой_2" data-name="Слой 2"><g id="Слой_1-2" data-name="Слой 1"><line class="cls-1" x1="84.21" y1="30.86" x2="94.58" y2="30.86"/><line class="cls-1" x1="84.21" y1="37.66" x2="94.58" y2="37.66"/><line class="cls-1" x1="84.21" y1="44.47" x2="94.58" y2="44.47"/><line class="cls-1" x1="72.08" y1="83.89" x2="72.08" y2="74.84"/><line class="cls-1" x1="77.71" y1="83.89" x2="77.71" y2="72.82"/><line class="cls-1" x1="83.33" y1="83.89" x2="83.33" y2="74.84"/><line class="cls-1" x1="94.58" y1="83.89" x2="94.58" y2="65.43"/><line class="cls-1" x1="88.96" y1="83.89" x2="88.96" y2="69.18"/><line class="cls-1" x1="84.21" y1="51.27" x2="88.11" y2="51.27"/><polygon class="cls-1" points="89.23 21.07 101.64 21.07 89.23 8.65 89.23 21.07"/><line class="cls-1" x1="59.94" y1="8.65" x2="89.23" y2="8.65"/><polyline class="cls-1" points="101.64 21.07 101.64 92.22 70.23 92.22"/><path class="cls-2" d="M30.22,1.89A32,32,0,0,1,53.09,9.68C72.42,25.81,64.62,47.62,62.68,52c-2.51,5.68-7.62,17.17-8.57,22.16"/><path class="cls-2" d="M32.22,27.84s.47,12.46-15.43,12.4l-6.46,5.65H5.74l-5.12-4V36.06l11.86-12.8-3-2.16L16,13.29a28.77,28.77,0,0,1,6.15-2.8c.19-1.88.45-9.87.45-9.87s5.3,6.07,7.53,8.31a25.7,25.7,0,0,1,18.33,6.24c15.5,12.94,9.3,30.45,7.68,34s-9,17.78-9.16,25.06H14.37S12.88,58.79,20,52.7c8.69-7.48,13.27-12.46,10.17-18"/><path class="cls-2" d="M56.26,83.08H11.9a2.3,2.3,0,0,1-2.29-2.29h0A2.3,2.3,0,0,1,11.9,78.5H56.26a2.3,2.3,0,0,1,2.29,2.29h0A2.3,2.3,0,0,1,56.26,83.08Z"/><path class="cls-2" d="M64.66,98.17V97.09a9.73,9.73,0,0,0-9.7-9.7H13.2a9.73,9.73,0,0,0-9.7,9.7v1.08Z"/><polyline class="cls-2" points="17.8 4.67 11.54 8.04 13.02 10.86"/><polyline class="cls-2" points="17.17 21.95 22.32 20.43 18.38 24.17"/><rect class="cls-1" x="72.12" y="28.19" width="5.1" height="5.1"/><rect class="cls-1" x="72.12" y="38.45" width="5.1" height="5.1"/><rect class="cls-1" x="72.12" y="48.72" width="5.1" height="5.1"/><polyline class="cls-1" points="64.66 72.82 76.15 63.95 80.15 67.39 96.3 56.95"/></g></g></svg>