<svg xmlns="http://www.w3.org/2000/svg" viewBox="0 0 57.87 63.45"><defs><style>.cls-1,.cls-2{fill:none;stroke-linejoin:round;}.cls-1{stroke:#fdc511;}.cls-2{stroke:#1e66af;}</style></defs><g id="Слой_2" data-name="Слой 2"><g id="Слой_1-2" data-name="Слой 1"><line class="cls-1" x1="28.94" y1="5.96" x2="28.94" y2="3.61"/><path class="cls-1" d="M30.49,2.06A1.56,1.56,0,1,1,28.94.5,1.55,1.55,0,0,1,30.49,2.06Z"/><rect class="cls-2" x="0.5" y="31.72" width="56.87" height="2.78"/><path class="cls-2" d="M41.91,14a20.06,20.06,0,0,1,8.51,12.78"/><path class="cls-2" d="M35,10.9a20.52,20.52,0,0,1,2.94.79"/><path class="cls-2" d="M7.45,27.91a19.91,19.91,0,0,1,3.9-8.49"/><path class="cls-2" d="M3.11,31.72a25.83,25.83,0,0,1,51.65,0"/><path class="cls-2" d="M38,34.51c-.28,1.52-3.22,5.31-3.22,5.31"/><path class="cls-2" d="M29.08,41.94c2.36-2.32,5.57-6.26,6.66-7.43"/><path class="cls-2" d="M30,34.51c1,.08-1.38,9.34-1.38,9.34"/><path class="cls-2" d="M24,44.37a10.85,10.85,0,0,0,3.12-6.57c.31-2.13.88-3,1.49-3.29"/><path class="cls-2" d="M44.62,34.49c.65,0,.71.72-.64,1.84-2.75,2.29-10.9,10.79-12.76,12.79a22.4,22.4,0,0,0-4.94,8.5"/><path class="cls-2" d="M15.77,57.62s2.26-3.83,2.26-4l-1.17-17.6c0-.51.51-1.44,1-1.26a5,5,0,0,1,3.08,4.83c-.24,3.82.57,4.78,3.93,5a10.9,10.9,0,0,0,5.59-1.57c.8-.55,11.08-8.59,12-8.59"/><path class="cls-1" d="M15.55,57.62H26.49a2.12,2.12,0,0,1,2.12,2.12V63a0,0,0,0,1,0,0H13.42a0,0,0,0,1,0,0V59.74A2.12,2.12,0,0,1,15.55,57.62Z"/><line class="cls-1" x1="28.62" y1="60.29" x2="19.16" y2="60.29"/></g></g></svg>