<svg xmlns="http://www.w3.org/2000/svg" viewBox="0 0 63.08 63.51"><defs><style>.cls-1,.cls-2,.cls-3,.cls-4{fill:none;stroke-linejoin:round;}.cls-1,.cls-2{stroke:#fdc511;}.cls-1,.cls-4{stroke-linecap:round;}.cls-3,.cls-4{stroke:#1e66af;}</style></defs><g id="Слой_2" data-name="Слой 2"><g id="Слой_1-2" data-name="Слой 1"><ellipse class="cls-1" cx="15.4" cy="22.07" rx="3.67" ry="6.8" transform="translate(-11.15 17.66) rotate(-45.67)"/><line class="cls-1" x1="20.26" y1="26.83" x2="11.46" y2="18.05"/><line class="cls-1" x1="16.36" y1="18.64" x2="16.18" y2="22.76"/><path class="cls-1" d="M48.13,15.43a8.15,8.15,0,0,1-7.39,2.24A8.12,8.12,0,0,1,50.31,8,8.08,8.08,0,0,1,48.13,15.43Z"/><line class="cls-1" x1="40.74" y1="17.67" x2="49.58" y2="8.94"/><line class="cls-1" x1="48.96" y1="13.83" x2="44.84" y2="13.62"/><path class="cls-2" d="M42.15,37.7c.05-1.92-.37-4.39-2.85-5.65a5,5,0,0,1,3.07-1.3,3.46,3.46,0,0,1,4.23-5.32h0a2.22,2.22,0,0,1,2.86-.76,2.05,2.05,0,0,1,.63.49A2.21,2.21,0,0,1,54,26.73l.16.07a2.2,2.2,0,0,1,1,3c-.19.38,1.31-.33,2.39.22a2.23,2.23,0,0,1,1,3c0,.08.28.33.48.43a2,2,0,0,1,.85,2.65c-.37.72-1.09,1.9-3.76,2.21"/><path class="cls-3" d="M26.3,38.06c1.55,0,3.69-2,4.36-3.12a5,5,0,0,1,3,1.48,3.48,3.48,0,0,1,6.81-.25h0"/><path class="cls-3" d="M22.36,38c-1.84-.87-4.51-2.71-4.47-5.56a5.13,5.13,0,0,0-2.75,2.16,3.7,3.7,0,0,0-3.39-2.24A3.65,3.65,0,0,0,8,35.83H8a2.3,2.3,0,0,0-2.14,2.22"/><path class="cls-1" d="M47.46,37.88a17.55,17.55,0,0,0,2.11-9.68"/><path class="cls-1" d="M49.15,33a5,5,0,0,0-2.66-3.52"/><path class="cls-1" d="M53,34.16a4.79,4.79,0,0,0-4.3.92"/><path class="cls-4" d="M25.68,2.43a5.89,5.89,0,1,0,7.07,9.43"/><path class="cls-4" d="M24.23.5a8.3,8.3,0,1,0,10,13.29"/><line class="cls-4" x1="23.39" y1="6.31" x2="29.21" y2="7.15"/><line class="cls-4" x1="28.37" y1="12.95" x2="29.21" y2="7.15"/><line class="cls-4" x1="24.48" y1="10.67" x2="29.21" y2="7.15"/><line class="cls-4" x1="34.19" y1="13.79" x2="24.23" y2="0.5"/><path class="cls-4" d="M36.89,26.73a5.9,5.9,0,0,0-10.19,6"/><path class="cls-4" d="M39,25.51a8.31,8.31,0,0,0-14.35,8.4"/><line class="cls-4" x1="33.28" y1="24.03" x2="31.79" y2="29.71"/><line class="cls-4" x1="26.1" y1="28.23" x2="31.79" y2="29.71"/><line class="cls-4" x1="28.81" y1="24.63" x2="31.79" y2="29.71"/><line class="cls-4" x1="24.62" y1="33.91" x2="38.97" y2="25.51"/><path class="cls-3" d="M7.81,45.67a24.61,24.61,0,0,1-1.27-3"/><path class="cls-3" d="M19.56,57.4a26.26,26.26,0,0,1-10.2-9"/><line class="cls-3" x1="57.95" y1="41.21" x2="45.15" y2="41.21"/><path class="cls-3" d="M.5,38.27A31.41,31.41,0,0,0,21.52,63H41.57a31.41,31.41,0,0,0,21-24.74Z"/></g></g></svg>