<svg xmlns="http://www.w3.org/2000/svg" viewBox="0 0 40.15 62.93"><defs><style>.cls-1,.cls-2{fill:none;stroke-linejoin:round;}.cls-1{stroke:#1e66af;}.cls-2{stroke:#fdc511;}</style></defs><g id="Слой_2" data-name="Слой 2"><g id="Слой_1-2" data-name="Слой 1"><line class="cls-1" x1="13.3" y1="30.97" x2="24.96" y2="42.12"/><line class="cls-1" x1="11.48" y1="37.42" x2="23.35" y2="48.77"/><line class="cls-1" x1="14.05" y1="48.08" x2="21.74" y2="55.43"/><path class="cls-1" d="M10.23,32.28l7,28.76a1.6,1.6,0,0,0,3.18,0l7-28.76"/><path class="cls-1" d="M6.43,18.91A12.81,12.81,0,0,0,8.57,30.79S9.81,32.41,11,32.3A3.19,3.19,0,0,0,13.25,31,2,2,0,0,1,16.51,31a3,3,0,0,0,2.27,1.34A3,3,0,0,0,21,31a1.91,1.91,0,0,1,3.23,0,3,3,0,0,0,2.25,1.33A3.77,3.77,0,0,0,29,30.79a12.84,12.84,0,0,0-6.83-20.38h0a12,12,0,0,0-2.62-.14"/><path class="cls-1" d="M27.67,18.36a9,9,0,0,0-5.77-4.75h0"/><path class="cls-1" d="M28.55,22.24a9.28,9.28,0,0,0-.19-1.85"/><path class="cls-1" d="M8.62,24.63a8.95,8.95,0,0,0,2.22,4.47"/><polyline class="cls-1" points="27.87 13.11 36.7 0.5 39.65 2.55 30.16 16.09"/><polyline class="cls-1" points="24.92 10.82 32.12 0.54 35.07 2.58"/><line class="cls-1" x1="24.27" y1="30.97" x2="12.61" y2="42.12"/><line class="cls-1" x1="26.09" y1="37.42" x2="14.22" y2="48.77"/><line class="cls-1" x1="23.51" y1="48.08" x2="15.83" y2="55.43"/><line class="cls-2" x1="4.93" y1="6.97" x2="6.35" y2="8.3"/><line class="cls-2" x1="4.53" y1="13.3" x2="6.05" y2="13"/><line class="cls-2" x1="9.38" y1="11.74" x2="10.72" y2="9.43"/><line class="cls-2" x1="11.81" y1="6.28" x2="11.91" y2="5.07"/><path class="cls-2" d="M13.08,14.45a9.18,9.18,0,0,1,4.07-1.27,8.61,8.61,0,1,0-8,5.55h.17A8.05,8.05,0,0,1,13.08,14.45Z"/></g></g></svg>