<svg xmlns="http://www.w3.org/2000/svg" viewBox="0 0 63.94 56.33"><defs><style>.cls-1,.cls-2{fill:none;stroke-linecap:round;stroke-linejoin:round;}.cls-1{stroke:#1e66af;}.cls-2{stroke:#fdc511;}</style></defs><g id="Слой_2" data-name="Слой 2"><g id="Слой_1-2" data-name="Слой 1"><path class="cls-1" d="M54.82,50.37a2.45,2.45,0,1,1-2.45-2.45A2.45,2.45,0,0,1,54.82,50.37Z"/><circle class="cls-1" cx="52.37" cy="50.37" r="5.46" transform="translate(-20.28 51.78) rotate(-45)"/><path class="cls-1" d="M16,50.37a2.46,2.46,0,1,1-2.46-2.45A2.46,2.46,0,0,1,16,50.37Z"/><circle class="cls-1" cx="13.56" cy="50.37" r="5.46" transform="translate(-31.64 24.34) rotate(-45)"/><line class="cls-1" x1="41.11" y1="50.23" x2="46.91" y2="50.23"/><polyline class="cls-1" points="0.5 44.47 0.5 50.23 8.1 50.23"/><polyline class="cls-1" points="19.03 50.23 41.11 50.23 41.11 29.89 41.11 29.89 41.11 20.32 0.5 20.32 0.5 45.58"/><polyline class="cls-1" points="63.44 44 60.35 44 60.35 47.22 63.44 47.22"/><path class="cls-1" d="M44,29.89v4.2a3.56,3.56,0,0,0,3.56,3.57h8.36"/><path class="cls-1" d="M57.83,50.23h5.61V43.77a4.44,4.44,0,0,0-2.82-4.14l-4.69-1.86-5.25-7.88"/><line class="cls-1" x1="18.45" y1="47.22" x2="35.16" y2="47.22"/><line class="cls-1" x1="48.05" y1="33.75" x2="49.53" y2="35.24"/><line class="cls-1" x1="45.27" y1="41.19" x2="46.91" y2="41.19"/><path class="cls-1" d="M41.1,26.77h9.1a1.51,1.51,0,0,1,1.51,1.51v0A1.51,1.51,0,0,1,50.2,29.8H41.1a0,0,0,0,1,0,0v-3A0,0,0,0,1,41.1,26.77Z"/><path class="cls-1" d="M16.67,25.69a1.52,1.52,0,0,1-1.51,1.52h0a1.51,1.51,0,0,1-1.51-1.52"/><path class="cls-1" d="M22.72,25.69a1.52,1.52,0,0,1-1.51,1.52h0a1.52,1.52,0,0,1-1.52-1.52"/><path class="cls-1" d="M28.76,25.69a1.51,1.51,0,0,1-1.51,1.52h0a1.52,1.52,0,0,1-1.51-1.52"/><path class="cls-1" d="M34.81,25.69a1.52,1.52,0,0,1-1.51,1.52h0a1.52,1.52,0,0,1-1.52-1.52"/><path class="cls-1" d="M37.83,24.35v1.34a1.52,1.52,0,0,1-1.51,1.52h0a1.51,1.51,0,0,1-1.51-1.52V24.35"/><path class="cls-1" d="M25.74,24.35v1.34a1.52,1.52,0,0,1-1.51,1.52h0a1.51,1.51,0,0,1-1.51-1.52V24.35"/><path class="cls-1" d="M31.78,24.35v1.34a1.51,1.51,0,0,1-1.51,1.52h0a1.52,1.52,0,0,1-1.51-1.52V24.35"/><path class="cls-1" d="M13.65,24.35v1.34a1.52,1.52,0,0,1-1.51,1.52h0a1.51,1.51,0,0,1-1.51-1.52V24.35"/><path class="cls-1" d="M7.6,24.35v1.34a1.51,1.51,0,0,1-1.51,1.52h0a1.52,1.52,0,0,1-1.51-1.52V24.35"/><path class="cls-1" d="M19.69,24.35v1.34a1.51,1.51,0,0,1-1.51,1.52h0a1.52,1.52,0,0,1-1.51-1.52V24.35"/><path class="cls-1" d="M10.63,25.69a1.52,1.52,0,0,1-1.52,1.52h0A1.52,1.52,0,0,1,7.6,25.69"/><polygon class="cls-1" points="7.46 20.44 34.95 20.44 37.83 24.34 4.58 24.34 7.46 20.44"/><line class="cls-1" x1="7.6" y1="24.35" x2="9.84" y2="20.44"/><line class="cls-1" x1="10.63" y1="24.35" x2="12.37" y2="20.44"/><line class="cls-1" x1="13.65" y1="24.35" x2="14.89" y2="20.44"/><line class="cls-1" x1="16.67" y1="24.35" x2="17.42" y2="20.44"/><line class="cls-1" x1="19.69" y1="24.35" x2="19.94" y2="20.44"/><line class="cls-1" x1="22.72" y1="24.35" x2="22.47" y2="20.44"/><line class="cls-1" x1="25.74" y1="24.35" x2="24.99" y2="20.44"/><line class="cls-1" x1="28.76" y1="24.35" x2="27.52" y2="20.44"/><line class="cls-1" x1="31.78" y1="24.35" x2="30.04" y2="20.44"/><line class="cls-1" x1="34.81" y1="24.35" x2="32.57" y2="20.44"/><polyline class="cls-1" points="34.77 27.41 34.77 41.23 7.49 41.23 7.49 27.41"/><line class="cls-1" x1="34.77" y1="38.51" x2="7.91" y2="38.51"/><line class="cls-1" x1="44.01" y1="29.89" x2="50.68" y2="29.89"/><path class="cls-2" d="M16.37,4h0a1.76,1.76,0,0,1,2.22-1.21h0a1.76,1.76,0,0,0,1.69-.37h0a1.76,1.76,0,0,1,2.52.18h0a1.74,1.74,0,0,0,1.62.61h0a1.75,1.75,0,0,1,2,1.52h0a1.79,1.79,0,0,0,1,1.39h0a1.76,1.76,0,0,1,.88,2.37h0a1.75,1.75,0,0,0,.13,1.73h0A1.76,1.76,0,0,1,28,12.72h0a1.78,1.78,0,0,0-.83,1.53h0A1.77,1.77,0,0,1,25.33,16h0a1.78,1.78,0,0,0-1.52.83h0a1.75,1.75,0,0,1-2.46.54h0a1.75,1.75,0,0,0-1.73-.12h0a1.77,1.77,0,0,1-2.37-.89h0a1.74,1.74,0,0,0-1.38-1h0a1.77,1.77,0,0,1-1.52-2h0a1.74,1.74,0,0,0-.6-1.62h0a1.77,1.77,0,0,1-.18-2.53h0a1.78,1.78,0,0,0,.37-1.7h0a1.76,1.76,0,0,1,1.21-2.22h0A1.74,1.74,0,0,0,16.37,4Z"/><ellipse class="cls-2" cx="20.95" cy="9.85" rx="3.15" ry="3.16"/><line class="cls-2" x1="19.55" y1="4.78" x2="18.66" y2="5.5"/><line class="cls-2" x1="16.6" y1="12.77" x2="15.65" y2="12.15"/><line class="cls-2" x1="25.83" y1="10.13" x2="25.89" y2="11.27"/><line class="cls-2" x1="24.85" y1="6.1" x2="25.99" y2="6.1"/><line class="cls-2" x1="20.55" y1="14.62" x2="21.32" y2="15.46"/><ellipse class="cls-2" cx="20.95" cy="9.85" rx="9.33" ry="9.35"/></g></g></svg>