<svg xmlns="http://www.w3.org/2000/svg" viewBox="0 0 55.41 63.45"><defs><style>.cls-1,.cls-2{fill:none;stroke-linecap:round;stroke-linejoin:round;}.cls-1{stroke:#1e66af;}.cls-2{stroke:#fdc511;}</style></defs><g id="Слой_2" data-name="Слой 2"><g id="Слой_1-2" data-name="Слой 1"><path class="cls-1" d="M31.51,37.62v23A2.32,2.32,0,0,1,29.18,63h0a2.32,2.32,0,0,1-2.32-2.32v-23"/><line class="cls-1" x1="26.91" y1="56.93" x2="31.51" y2="59.57"/><line class="cls-1" x1="26.91" y1="52.41" x2="31.51" y2="55.05"/><line class="cls-1" x1="26.91" y1="47.88" x2="31.51" y2="50.53"/><line class="cls-1" x1="26.91" y1="43.36" x2="31.51" y2="46.01"/><line class="cls-1" x1="26.91" y1="38.84" x2="31.51" y2="41.48"/><path class="cls-1" d="M21.13,8A9.45,9.45,0,0,0,15.37,5.2a9.71,9.71,0,0,0-2.22,5.64"/><path class="cls-1" d="M18.18,28.19a8.12,8.12,0,0,1-4-4.26L9.06,11.39a18.93,18.93,0,0,1,8.92.92"/><path class="cls-1" d="M20.81,28.82a8.92,8.92,0,0,1-2.54-.6.2.2,0,0,1-.08,0c-.09-.19-.18-.38-.26-.57A18.93,18.93,0,0,1,24.26,5.24l3.5,8.59"/><path class="cls-1" d="M31.73,39.81c6.12,1,11.9-.12,16.25-3.7,5-4.08,7.11-10.57,6.64-17.8a24.51,24.51,0,0,0-11.5-.38"/><path class="cls-1" d="M25.84,8.5a24.49,24.49,0,0,1,7.21-8,28.5,28.5,0,0,1,3.84,3.25,20.73,20.73,0,0,1,5,7.83,16.75,16.75,0,0,1,.89,5.27A18.52,18.52,0,0,1,38,29.14l-.56.63"/><path class="cls-1" d="M18.81,35.27a18.31,18.31,0,0,1,8.05,7.39"/><path class="cls-1" d="M6.27,21.15c3.6.91,6.34,2,8.92,4.58"/><path class="cls-1" d="M9.76,28.54A15.12,15.12,0,0,1,16.12,27"/><path class="cls-1" d="M49.91,5.08a2.57,2.57,0,1,0,1.57-3.27A2.57,2.57,0,0,0,49.91,5.08Z"/><path class="cls-1" d="M42.38,6.67A2.57,2.57,0,1,0,44,3.4,2.57,2.57,0,0,0,42.38,6.67Z"/><path class="cls-1" d="M45.75,13.33A2.59,2.59,0,0,0,49,14.89a2.56,2.56,0,1,0-3.29-1.56Z"/><ellipse class="cls-1" cx="16.12" cy="34.49" rx="2.56" ry="2.57" transform="translate(-18.39 50.56) rotate(-89.91)"/><path class="cls-1" d="M19.33,38.82a2.57,2.57,0,1,0,3.63.32A2.6,2.6,0,0,0,19.33,38.82Z"/><line class="cls-1" x1="33.05" y1="0.5" x2="33.05" y2="12.99"/><line class="cls-1" x1="33.05" y1="12.99" x2="37.3" y2="8.75"/><line class="cls-1" x1="33.05" y1="10.08" x2="30.16" y2="7.2"/><line class="cls-1" x1="54.62" y1="18.31" x2="37.12" y2="31.92"/><line class="cls-1" x1="47.45" y1="19.7" x2="46.32" y2="24.76"/><line class="cls-1" x1="44.17" y1="26.44" x2="50.45" y2="26.44"/><line class="cls-1" x1="37.39" y1="32.43" x2="47.07" y2="32.43"/><path class="cls-1" d="M42.63,14.07a33.62,33.62,0,0,1,7.31-8"/><path class="cls-1" d="M31.52,41a5,5,0,0,0,4.77,5.2"/><path class="cls-1" d="M31.83,42.27a5,5,0,0,0,4.74.48"/><path class="cls-1" d="M9.64,31.62a6.71,6.71,0,0,0,4.55-4.12A6.72,6.72,0,0,0,3.62,30.3,6.74,6.74,0,0,0,9.64,31.62Z"/><path class="cls-1" d="M4.85,23.59a6.72,6.72,0,0,0,6.06-1A6.71,6.71,0,0,0,.5,19.25,6.71,6.71,0,0,0,4.85,23.59Z"/><path class="cls-2" d="M33.47,17.58a9.45,9.45,0,0,0-4.3-4.72A9.72,9.72,0,0,0,25,17.26"/><path class="cls-2" d="M23.09,35.22A8.11,8.11,0,0,1,21,29.77V16.23a19,19,0,0,1,7.92,4.2"/><path class="cls-2" d="M23.16,35.28l-.06-.06c0-.21,0-.42,0-.63A19,19,0,0,1,37.39,16.23V29.77A7.53,7.53,0,0,1,35,35.48a8,8,0,0,1-6.13,2.23A8.59,8.59,0,0,1,23.16,35.28Z"/><path class="cls-2" d="M34.57,30.11a4.43,4.43,0,0,1-1.38,3.35,4.67,4.67,0,0,1-3.6,1.31"/></g></g></svg>