<svg xmlns="http://www.w3.org/2000/svg" viewBox="0 0 64.46 64.24"><defs><style>.cls-1,.cls-2{fill:none;stroke-linecap:round;stroke-linejoin:round;}.cls-1{stroke:#fdc511;}.cls-2{stroke:#1e66af;}</style></defs><g id="Слой_2" data-name="Слой 2"><g id="Слой_1-2" data-name="Слой 1"><rect class="cls-1" x="15.05" y="35.97" width="33.91" height="27.44"/><polyline class="cls-1" points="29.8 36.42 29.8 43.23 31.98 41.05 34.22 43.3 34.22 36.42"/><line class="cls-1" x1="40.33" y1="61.21" x2="46.47" y2="61.21"/><line class="cls-1" x1="44.39" y1="56.24" x2="44.39" y2="61.21"/><polyline class="cls-1" points="42.35 58.35 44.38 56.2 46.43 58.35"/><line class="cls-1" x1="36.59" y1="61.21" x2="40.75" y2="61.21"/><line class="cls-1" x1="38.67" y1="56.24" x2="38.67" y2="61.21"/><polyline class="cls-1" points="36.63 58.35 38.66 56.2 40.71 58.35"/><line class="cls-1" x1="17.61" y1="48.59" x2="17.61" y2="56.39"/><line class="cls-1" x1="17.61" y1="58.34" x2="17.61" y2="60.68"/><line class="cls-1" x1="45" y1="49.57" x2="48.97" y2="49.57"/><polyline class="cls-2" points="60.03 63.74 60.03 13.14 63.96 13.14 63.96 0.5 0.5 0.5 0.5 13.14 4.42 13.14 4.42 63.74"/><line class="cls-2" x1="10.31" y1="13.58" x2="54.15" y2="13.58"/><rect class="cls-2" x="7.51" y="5.7" width="49.44" height="3.83"/><line class="cls-2" x1="10.31" y1="17.57" x2="54.15" y2="17.57"/><line class="cls-2" x1="54.15" y1="9.53" x2="54.15" y2="63.74"/><line class="cls-2" x1="10.31" y1="63.74" x2="10.31" y2="9.53"/><line class="cls-2" x1="4.43" y1="63.74" x2="10.29" y2="63.74"/><line class="cls-2" x1="54.19" y1="63.74" x2="60.06" y2="63.74"/></g></g></svg>