<svg xmlns="http://www.w3.org/2000/svg" viewBox="0 0 63.62 62.87"><defs><style>.cls-1,.cls-2{fill:none;stroke-linecap:round;stroke-linejoin:round;}.cls-1{stroke:#fdc511;}.cls-2{stroke:#1e66af;}</style></defs><g id="Слой_2" data-name="Слой 2"><g id="Слой_1-2" data-name="Слой 1"><polyline class="cls-1" points="8.4 0.5 8.4 7.63 0.5 13.78 0.5 16.92 26.66 16.92 26.66 13.78 18.76 7.63 18.76 0.5"/><line class="cls-1" x1="21.08" y1="13.86" x2="26.66" y2="13.86"/><line class="cls-1" x1="0.5" y1="13.86" x2="18.47" y2="13.86"/><line class="cls-1" x1="2.76" y1="15.46" x2="2.7" y2="15.46"/><line class="cls-1" x1="4.83" y1="15.46" x2="4.76" y2="15.46"/><rect class="cls-2" x="0.64" y="26.68" width="25.88" height="35.67"/><line class="cls-2" x1="0.64" y1="33.87" x2="26.52" y2="33.87"/><line class="cls-2" x1="0.64" y1="54.07" x2="26.52" y2="54.07"/><line class="cls-2" x1="4.47" y1="36.65" x2="22.69" y2="36.65"/><polyline class="cls-2" points="0.64 50.89 9.34 50.89 9.34 51.92 17.82 51.92 17.82 50.89 26.52 50.89"/><rect class="cls-2" x="29.76" y="8.02" width="33.35" height="54.36"/><line class="cls-2" x1="44.68" y1="60.24" x2="44.68" y2="8"/><line class="cls-2" x1="29.76" y1="60.24" x2="63.12" y2="60.24"/><rect class="cls-2" x="32.49" y="28.02" width="9.21" height="9.16"/><polyline class="cls-2" points="36.16 30.76 36.16 33.29 34.31 33.29 34.31 30.76"/><polyline class="cls-2" points="39.88 30.76 39.88 33.29 38.04 33.29 38.04 30.76"/><line class="cls-2" x1="41.7" y1="30.76" x2="32.49" y2="30.76"/><polyline class="cls-2" points="48.34 54.55 48.34 15.36 46.79 14.32"/></g></g></svg>