<svg xmlns="http://www.w3.org/2000/svg" viewBox="0 0 64.02 50.81"><defs><style>.cls-1,.cls-2{fill:none;stroke-linecap:round;stroke-linejoin:round;}.cls-1{stroke:#1e66af;}.cls-2{stroke:#fdc511;}</style></defs><g id="Слой_2" data-name="Слой 2"><g id="Слой_1-2" data-name="Слой 1"><path class="cls-1" d="M23.88.5A7.18,7.18,0,0,1,16.7,7.7,7.19,7.19,0,0,1,9.51.5"/><path class="cls-1" d="M21.11,13.24a1.28,1.28,0,1,0-2.55,0"/><path class="cls-1" d="M12.28,13.24a1.28,1.28,0,0,1,2.56,0"/><path class="cls-1" d="M10,10.17c0,1.74-1.85,3.14-4.13,3.14S.5,10.17.5,10.17,3.54,7,5.83,7,10,8.44,10,10.17Z"/><path class="cls-1" d="M23.43,10.17c0,1.74,1.85,3.14,4.14,3.14s5.32-3.14,5.32-3.14S29.85,7,27.57,7,23.43,8.44,23.43,10.17Z"/><path class="cls-1" d="M21,19.52A3.07,3.07,0,0,1,24,22.58h0A3.07,3.07,0,0,1,21,25.64H12.44a3.07,3.07,0,0,1-3.06-3.06h0a3.07,3.07,0,0,1,3.06-3.06Z"/><line class="cls-1" x1="9.37" y1="22.58" x2="11.86" y2="22.58"/><line class="cls-1" x1="21.53" y1="22.58" x2="24.03" y2="22.58"/><path class="cls-1" d="M14,25.64s-.3,10,8.91,10l1,14.69h3.78l1-14.69H44.89S45.37,38,49.52,38l2.24,12.34h3.83V24.42s.48-10.81-8.3-10.81H23.14"/><path class="cls-1" d="M48.48,13.68h3.4a9.84,9.84,0,0,1,9.82,9.84v2.6"/><path class="cls-1" d="M63.52,31H59.88l.55-3.17a1.3,1.3,0,0,1,1.27-1.07h0A1.3,1.3,0,0,1,63,27.83Z"/><polyline class="cls-1" points="18.46 34.59 21.16 50.31 23.86 50.31"/><path class="cls-1" d="M41,35.62h0a16.32,16.32,0,0,1,1.25,10.59l-.89,4.1h4l2.49-12.49"/><path class="cls-1" d="M16.42,28.52s1.7,4.74,6.48,4.74"/><path class="cls-1" d="M37.6,16.17c.14,0,3.48,0,6.92,0a7.56,7.56,0,0,1,7.57,7.57V28.1"/><line class="cls-2" x1="30.98" y1="22.85" x2="39.43" y2="22.85"/><line class="cls-2" x1="41.52" y1="22.85" x2="44.22" y2="22.85"/><line class="cls-2" x1="33.97" y1="26.12" x2="43.79" y2="26.12"/><line class="cls-2" x1="31.28" y1="26.12" x2="28.16" y2="26.12"/><line class="cls-2" x1="30.02" y1="29.43" x2="47.33" y2="29.43"/><path class="cls-1" d="M4.7,9.6a1.65,1.65,0,0,1,1.42-.74,1.71,1.71,0,0,1,1.44.74"/><path class="cls-1" d="M25.51,9.6a1.65,1.65,0,0,1,1.42-.74,1.7,1.7,0,0,1,1.43.74"/><path class="cls-1" d="M10.82,20,10,10.4C9.77,9,11.12,7.7,12.86,7.7h7.68c1.73,0,3.08,1.26,2.87,2.7L22.58,20"/></g></g></svg>