<svg xmlns="http://www.w3.org/2000/svg" viewBox="0 0 59.39 61.96"><defs><style>.cls-1,.cls-2{fill:none;stroke-linejoin:round;}.cls-1{stroke:#fdc511;}.cls-2{stroke:#1e66af;}</style></defs><g id="Слой_2" data-name="Слой 2"><g id="Слой_1-2" data-name="Слой 1"><path class="cls-1" d="M8.74,8.67A17.54,17.54,0,0,0,4.3,13.12"/><path class="cls-1" d="M16.51,22.75l2.9-2a5.42,5.42,0,0,0,1.78-6.82L16.51,4.33a2,2,0,0,0-2.24-1.05A21,21,0,0,0,7.36,6.42,20.8,20.8,0,0,0,2,11.8a2,2,0,0,0,.2,2.47L9.51,22A5.4,5.4,0,0,0,16.51,22.75Z"/><path class="cls-1" d="M2.19,14.35l-1.63,7a2.48,2.48,0,0,0,1.84,3L9,25.8A2.47,2.47,0,0,0,12,24l.09-.39"/><path class="cls-1" d="M1.87,24.06c-.23,5,1.28,9.11,3.54,9.31s4.19-3.12,5-7.65"/><path class="cls-1" d="M16.59,4.36l7.06.92A2.48,2.48,0,0,1,25.78,8l-.88,6.73a2.46,2.46,0,0,1-2.76,2.12l-.39-.05"/><path class="cls-1" d="M25.78,7.47c4.79,1.56,8.07,4.41,7.46,6.6s-4.38,2.82-8.9,2"/><path class="cls-1" d="M29.34,14.18A10.21,10.21,0,0,1,26.6,14"/><line class="cls-1" x1="21.41" y1="28.46" x2="21.41" y2="28.46"/><line class="cls-1" x1="25.11" y1="0.5" x2="25.11" y2="0.5"/><line class="cls-1" x1="14.25" y1="30.57" x2="14.25" y2="30.57"/><line class="cls-1" x1="22.44" y1="38.26" x2="22.44" y2="38.26"/><line class="cls-1" x1="4.57" y1="34.23" x2="4.57" y2="34.23"/><polyline class="cls-2" points="25.35 59.59 18.98 57.23 53.69 57.23 47.32 59.59"/><path class="cls-2" d="M47.36,59.58h0a1.88,1.88,0,0,1-1.88,1.88H27.19a1.88,1.88,0,0,1-1.88-1.88h7.55"/><path class="cls-2" d="M53,39.44a5.14,5.14,0,0,1,.8-.11,4.81,4.81,0,1,1,.49,9.61,4.94,4.94,0,0,1-2.8-.71"/><path class="cls-2" d="M52.68,41.68a2.92,2.92,0,0,1,1.22-.34,2.8,2.8,0,1,1,.28,5.59,3,3,0,0,1-2.1-.79"/><path class="cls-2" d="M46.4,50A12.44,12.44,0,0,0,49,42.7h0v-6a1.08,1.08,0,0,0-1.65-.91l-.6.37a7.28,7.28,0,0,1-7.17.33,7.06,7.06,0,0,0-6.54,0l-.11.06a7.1,7.1,0,0,1-7-.3l-.63-.4a1.09,1.09,0,0,0-1.67.91v6h0A12.7,12.7,0,0,0,43.3,52.83"/><path class="cls-2" d="M38.49,26.12C36.56,28,34,28.63,32.84,27.44s-.59-3.69,1.34-5.6,4.45-2.51,5.64-1.33S40.42,24.21,38.49,26.12Z"/><line class="cls-2" x1="39.82" y1="20.51" x2="37.21" y2="23.11"/><line class="cls-2" x1="35.06" y1="25.25" x2="32.84" y2="27.44"/><path class="cls-2" d="M20,31.84V42.09h0A16.26,16.26,0,0,0,32,57.23h8.61a16.26,16.26,0,0,0,12-15.14h0V31.84Z"/></g></g></svg>