<svg xmlns="http://www.w3.org/2000/svg" viewBox="0 0 60.27 63.18"><defs><style>.cls-1,.cls-2{fill:none;stroke-linejoin:round;}.cls-1{stroke:#1e66af;}.cls-2{stroke:#fdc511;}</style></defs><g id="Слой_2" data-name="Слой 2"><g id="Слой_1-2" data-name="Слой 1"><path class="cls-1" d="M26.11,38.61H57.17a2.29,2.29,0,0,0,2.16-3,18.71,18.71,0,0,0-35.37,0A2.29,2.29,0,0,0,26.11,38.61Z"/><line class="cls-1" x1="56.89" y1="38.61" x2="56.89" y2="42.14"/><line class="cls-1" x1="26.39" y1="42.14" x2="26.39" y2="38.61"/><line class="cls-1" x1="56.89" y1="51.91" x2="56.89" y2="54.95"/><line class="cls-1" x1="26.39" y1="54.95" x2="26.39" y2="51.91"/><path class="cls-1" d="M25.94,45a3.53,3.53,0,0,0,1.11,6.88H56.24A3.53,3.53,0,0,0,57.38,45"/><path class="cls-1" d="M25.37,55v2.89a4.85,4.85,0,0,0,4.86,4.84H53.06a4.84,4.84,0,0,0,4.85-4.84V55Z"/><path class="cls-2" d="M25.73,44.86a2.4,2.4,0,0,1,1.82.7,4.95,4.95,0,0,0,7.36,0,2.49,2.49,0,0,1,3.46,0,4.95,4.95,0,0,0,7.36,0,2.49,2.49,0,0,1,3.46,0,4.95,4.95,0,0,0,7.36,0,2.43,2.43,0,0,1,1.16-.64l.36,0a1.38,1.38,0,0,0,1.38-1.38h0a1.38,1.38,0,0,0-1.38-1.38H25.22a1.39,1.39,0,0,0-1.39,1.38h0a1.39,1.39,0,0,0,1.39,1.38Z"/><line class="cls-1" x1="28.4" y1="57.17" x2="38.02" y2="57.17"/><line class="cls-1" x1="29.85" y1="31.85" x2="29.85" y2="31.85"/><line class="cls-1" x1="35.1" y1="28.28" x2="35.1" y2="28.28"/><line class="cls-1" x1="41.64" y1="26.13" x2="41.64" y2="26.13"/><line class="cls-1" x1="39.9" y1="30.79" x2="39.9" y2="30.79"/><line class="cls-1" x1="35.1" y1="32.84" x2="35.1" y2="32.84"/><line class="cls-1" x1="46.82" y1="27.47" x2="46.82" y2="27.47"/><line class="cls-1" x1="51.34" y1="30.37" x2="51.34" y2="30.37"/><line class="cls-1" x1="46.39" y1="31.85" x2="46.39" y2="31.85"/><polyline class="cls-1" points="25.37 56.82 6 56.82 3.13 22.84 29.71 22.84 29.32 27.45"/><line class="cls-1" x1="6.95" y1="35.53" x2="6.55" y2="30.79"/><line class="cls-1" x1="7.93" y1="47.04" x2="7.83" y2="45.9"/><line class="cls-1" x1="8.57" y1="54.63" x2="8.11" y2="49.21"/><polyline class="cls-2" points="4.65 0.46 14.33 4.38 16.2 17.11"/><line class="cls-1" x1="3.59" y1="28.28" x2="24.4" y2="28.28"/><line class="cls-1" y1="22.84" x2="32.84" y2="22.84"/><line class="cls-1" x1="13.46" y1="42.51" x2="24.2" y2="42.51"/><line class="cls-1" x1="5.26" y1="42.51" x2="9.84" y2="42.51"/><polyline class="cls-1" points="1.91 22.84 3.1 17.11 29.74 17.11 30.93 22.84"/><line class="cls-2" x1="44.46" y1="22.84" x2="44.46" y2="12.78"/><polygon class="cls-2" points="53.06 17.28 44.46 17.28 44.46 11.88 53.06 11.88 50.79 14.58 53.06 17.28"/></g></g></svg>