<svg xmlns="http://www.w3.org/2000/svg" viewBox="0 0 73.28 63.15"><defs><style>.cls-1,.cls-2{fill:none;stroke-linejoin:round;}.cls-1{stroke:#fdc511;}.cls-2{stroke:#1e66af;}</style></defs><g id="Слой_2" data-name="Слой 2"><g id="Слой_1-2" data-name="Слой 1"><polyline class="cls-1" points="45.97 9.05 45.97 12.83 53.13 12.83 53.13 9.05"/><polyline class="cls-1" points="61.05 15.99 61.05 9.05 38.05 9.05 38.05 15.99"/><polyline class="cls-1" points="43.07 8.82 43.07 2.24 28.94 2.24 28.94 15.99"/><line class="cls-2" x1="60.51" y1="27.87" x2="29.48" y2="27.87"/><line class="cls-2" x1="54.69" y1="36.05" x2="35.3" y2="36.05"/><circle class="cls-2" cx="58.82" cy="57.23" r="1.74"/><path class="cls-2" d="M27.22,57.23A1.74,1.74,0,1,0,25.48,59,1.74,1.74,0,0,0,27.22,57.23Z"/><circle class="cls-2" cx="58.82" cy="57.23" r="5.43"/><polyline class="cls-2" points="23.94 46.21 63.47 46.21 72.78 18.59 17.21 18.59"/><circle class="cls-2" cx="25.48" cy="57.23" r="5.43" transform="translate(-32.84 80.09) rotate(-87.4)"/><line class="cls-2" x1="53.68" y1="55.48" x2="30.62" y2="55.48"/><line class="cls-2" x1="53.68" y1="58.97" x2="30.62" y2="58.97"/><path class="cls-2" d="M21.74,53.3,9.74,3.9H2.2A1.7,1.7,0,0,1,2.2.5H12.82L25.29,51.8"/></g></g></svg>