<svg xmlns="http://www.w3.org/2000/svg" viewBox="0 0 71.07 63.13"><defs><style>.cls-1,.cls-2{fill:none;stroke-linejoin:round;}.cls-1{stroke:#1e66af;}.cls-2{stroke:#fdc511;}</style></defs><g id="Слой_2" data-name="Слой 2"><g id="Режим_изоляции" data-name="Режим изоляции"><path class="cls-1" d="M39.92,31.91,24.6,5.3A30.73,30.73,0,1,1,9.26,31.91Z"/><line class="cls-1" x1="55.22" y1="58.46" x2="39.92" y2="31.91"/><line class="cls-1" x1="55.22" y1="5.36" x2="24.62" y2="58.46"/><line class="cls-1" x1="70.52" y1="31.91" x2="39.92" y2="31.91"/><path class="cls-1" d="M27.78,10.85A3.66,3.66,0,0,0,29.6,8.78h0A3.67,3.67,0,0,1,35.15,7h0a3.66,3.66,0,0,0,4.75-.51h0a3.68,3.68,0,0,1,5.81.62h0a3.68,3.68,0,0,0,4.54,1.48h0a3.66,3.66,0,0,1,5,2.92h0a3.68,3.68,0,0,0,3.56,3.2h0a3.68,3.68,0,0,1,3.43,4.73h0a3.68,3.68,0,0,0,1.94,4.38h0a3.68,3.68,0,0,1,1.21,5.72h0a3.68,3.68,0,0,0,0,4.79h0A3.68,3.68,0,0,1,64.23,40h0a3.66,3.66,0,0,0-1.94,4.37h0a3.68,3.68,0,0,1-3.43,4.73h0a3.7,3.7,0,0,0-3.56,3.2h0a3.67,3.67,0,0,1-5,2.93h0a3.66,3.66,0,0,0-4.54,1.48h0a3.68,3.68,0,0,1-5.81.61h0a3.66,3.66,0,0,0-4.75-.5h0A3.67,3.67,0,0,1,29.6,55h0a3.66,3.66,0,0,0-4.14-2.39h0a3.68,3.68,0,0,1-4.34-3.91h0a3.67,3.67,0,0,0-2.81-3.88h0a3.68,3.68,0,0,1-2.37-5.34h0a3.67,3.67,0,0,0-1-4.68h0a3.67,3.67,0,0,1-1.44-2.93"/><path class="cls-2" d="M57.79,21.57a4.55,4.55,0,1,0-1.66,6.22A4.52,4.52,0,0,0,57.79,21.57Z"/><path class="cls-2" d="M29.91,37.7a4.55,4.55,0,1,0-1.66,6.22A4.54,4.54,0,0,0,29.91,37.7Z"/><path class="cls-2" d="M57.79,42.25A4.55,4.55,0,1,1,56.13,36,4.53,4.53,0,0,1,57.79,42.25Z"/><ellipse class="cls-2" cx="39.92" cy="48.04" rx="4.54" ry="4.55"/><ellipse class="cls-2" cx="39.92" cy="15.78" rx="4.54" ry="4.55"/><path class="cls-1" d="M31.16,27.15H.5A30.73,30.73,0,0,1,15.91.5Z"/><path class="cls-1" d="M19.09,6.05a3.69,3.69,0,0,1-2.39.37,3.67,3.67,0,0,0-4.34,3.91A3.66,3.66,0,0,1,9.55,14.2a3.68,3.68,0,0,0-2.37,5.34,3.69,3.69,0,0,1-1,4.69,3.65,3.65,0,0,0-1.44,2.92"/><path class="cls-2" d="M21.15,21.36a4.55,4.55,0,1,1-1.66-6.22A4.53,4.53,0,0,1,21.15,21.36Z"/><line class="cls-1" x1="47.57" y1="52.14" x2="47.57" y2="52.14"/><line class="cls-1" x1="34.59" y1="35.42" x2="34.59" y2="35.42"/><line class="cls-1" x1="52.73" y1="15.78" x2="52.73" y2="15.78"/><line class="cls-1" x1="10.41" y1="23.85" x2="10.41" y2="23.85"/></g></g></svg>