<svg xmlns="http://www.w3.org/2000/svg" viewBox="0 0 55.85 62.51"><defs><style>.cls-1,.cls-2{fill:none;stroke-linejoin:round;}.cls-1{stroke:#fdc511;}.cls-2{stroke:#1e66af;}</style></defs><g id="Слой_2" data-name="Слой 2"><g id="Слой_1-2" data-name="Слой 1"><path class="cls-1" d="M13.72,19.83a9.58,9.58,0,0,1-3.22.59A10,10,0,1,1,10.5.5a9.86,9.86,0,0,1,10,10.22"/><path class="cls-1" d="M18.37,10.72a1.94,1.94,0,0,0,0-.26A7.87,7.87,0,1,0,10.5,18.3a4.37,4.37,0,0,0,2-.4h0"/><path class="cls-1" d="M12.94,8l3.13-3.11"/><path class="cls-1" d="M4.94,16l3-3"/><path class="cls-1" d="M8,8c-.72-.71-2.35-2.38-3-3.11"/><path class="cls-1" d="M2.63,10.46H7.86"/><path class="cls-1" d="M10.5,2.62V8"/><path class="cls-2" d="M55.24,10.72h-44s-1.9,10,10.34,14.74c0,0,.41,12.32,11.49,12.56h.32c11.08-.24,11.5-12.56,11.5-12.56C57.14,20.67,55.24,10.72,55.24,10.72Z"/><path class="cls-2" d="M29.31,37.37s4.27,1.28,2.05,18.33c-.71,4.17-7.17,4.89-8.86,4.89S21.24,62,21.24,62h24s.43-1.42-1.26-1.42-8.15-.72-8.86-4.89c-2.21-17.05,2-18.33,2-18.33"/><line class="cls-2" x1="53.71" y1="0.5" x2="29.41" y2="29.07"/><path class="cls-2" d="M36.78,33.75s3.4-.74,3.4-5"/><line class="cls-2" x1="19.37" y1="20.69" x2="19.37" y2="20.69"/><line class="cls-2" x1="24.11" y1="22.96" x2="24.11" y2="22.96"/><line class="cls-2" x1="29.89" y1="21.53" x2="29.89" y2="21.53"/><line class="cls-2" x1="25.4" y1="27.85" x2="25.4" y2="27.85"/><line class="cls-2" x1="29.89" y1="33.53" x2="29.89" y2="33.53"/><line class="cls-2" x1="35.31" y1="29.56" x2="35.31" y2="29.56"/><line class="cls-2" x1="41.31" y1="22.3" x2="41.31" y2="22.3"/><line class="cls-2" x1="46.55" y1="21.25" x2="46.55" y2="21.25"/><line class="cls-2" x1="12.51" y1="17.9" x2="54.17" y2="17.9"/></g></g></svg>