<svg xmlns="http://www.w3.org/2000/svg" viewBox="0 0 60.95 64.1"><defs><style>.cls-1,.cls-2{fill:none;stroke-linejoin:round;}.cls-1{stroke:#1e66af;}.cls-2{stroke:#fdc511;}</style></defs><g id="Слой_2" data-name="Слой 2"><g id="Режим_изоляции" data-name="Режим изоляции"><line class="cls-1" x1="33.09" y1="60.16" x2="33.09" y2="54.49"/><line class="cls-1" x1="27.86" y1="54.49" x2="27.86" y2="60.16"/><polygon class="cls-1" points="0.5 49.44 60.45 49.44 56.48 54.5 4.47 54.5 0.5 49.44"/><line class="cls-1" x1="2.7" y1="51.97" x2="10.41" y2="51.97"/><line class="cls-1" x1="13.07" y1="51.97" x2="14.69" y2="51.97"/><line class="cls-1" x1="21.49" y1="51.97" x2="58.37" y2="51.97"/><path class="cls-1" d="M40.16,63.6a4.24,4.24,0,0,0-3.94-2.71H24.73a4.23,4.23,0,0,0-3.94,2.71Z"/><path class="cls-1" d="M49.34,25.43a4.54,4.54,0,0,0-6.06,0,3.29,3.29,0,0,1-4.34,0,4.54,4.54,0,0,0-6.06,0,3.29,3.29,0,0,1-4.34,0,4.54,4.54,0,0,0-6.06,0,3.29,3.29,0,0,1-4.34,0,4.78,4.78,0,0,0-3-1.16,4.76,4.76,0,0,0-3,1.16"/><path class="cls-1" d="M5.27,37.74A9.1,9.1,0,0,0,21.67,35a9.09,9.09,0,0,0,17.61,0,9.1,9.1,0,0,0,16.4,2.74"/><line class="cls-2" x1="20.77" y1="42.62" x2="22.31" y2="43.4"/><line class="cls-2" x1="32.99" y1="45.58" x2="34.72" y2="45.68"/><line class="cls-2" x1="51.27" y1="44.29" x2="52.96" y2="43.91"/><line class="cls-2" x1="39.01" y1="42.39" x2="37.85" y2="43.67"/><line class="cls-2" x1="9.04" y1="44.81" x2="8.05" y2="43.39"/><line class="cls-2" x1="44.38" y1="46.34" x2="43.39" y2="44.92"/><line class="cls-2" x1="14.63" y1="46.27" x2="15.79" y2="44.99"/><line class="cls-2" x1="23.67" y1="11.39" x2="23.67" y2="13.45"/><line class="cls-2" x1="28.2" y1="11.39" x2="28.2" y2="13.45"/><line class="cls-2" x1="32.74" y1="11.39" x2="32.74" y2="13.45"/><line class="cls-2" x1="37.28" y1="11.39" x2="37.28" y2="13.45"/><path class="cls-2" d="M32.25,3.4a2.94,2.94,0,0,0-.87,2.78,2.9,2.9,0,0,0,3.73-3.4A2.93,2.93,0,0,0,32.25,3.4Z"/><path class="cls-2" d="M29.61,1.7A4.63,4.63,0,0,1,31,6.11a4.66,4.66,0,0,1-4.52-1A4.61,4.61,0,0,1,25.09.71,4.66,4.66,0,0,1,29.61,1.7Z"/><path class="cls-1" d="M19.06,18.79V10.56a4.17,4.17,0,0,1,4.17-4.17H37.71a4.18,4.18,0,0,1,4.18,4.17v8.23"/><path class="cls-1" d="M11.44,32.41V23a4.17,4.17,0,0,1,4.18-4.16H45.33A4.17,4.17,0,0,1,49.5,23v9.46"/><path class="cls-1" d="M5.26,49.44V37.92a5.52,5.52,0,0,1,5.53-5.51H50.15a5.52,5.52,0,0,1,5.54,5.51V49.44"/></g></g></svg>