<svg xmlns="http://www.w3.org/2000/svg" viewBox="0 0 64.3 62.26"><defs><style>.cls-1,.cls-2{fill:none;stroke-linejoin:round;}.cls-1{stroke:#1e66af;}.cls-2{stroke:#fdc511;}</style></defs><g id="Слой_2" data-name="Слой 2"><g id="Слой_1-2" data-name="Слой 1"><path class="cls-1" d="M13.4,16.72C11.55,11.89,8,9.34,5.19,10.42"/><path class="cls-1" d="M16.91,25.86c-1.85-4.83-5.42-7.38-8.21-6.3"/><path class="cls-1" d="M20.43,35c-1.86-4.83-5.43-7.37-8.22-6.3"/><path class="cls-1" d="M23.94,44.14c-1.86-4.83-5.43-7.37-8.22-6.3"/><path class="cls-1" d="M19.24,47c2.78-1.08,6.35,1.46,8.21,6.3L28,54.77v0c1.11,2.9.29,6-1.83,6.77h0c-2.12.82-4.77-.89-5.88-3.8L1,7.47C-.12,4.57.7,1.52,2.82.7h0c2.12-.81,4.77.89,5.89,3.8l4.46,11.62"/><path class="cls-1" d="M34.91,16.72c-1.86-4.83-5.43-7.38-8.22-6.3"/><path class="cls-1" d="M36,21.77c-1.8-2.06-4-2.92-5.81-2.21"/><path class="cls-1" d="M28.79,23.82,22.5,7.47c-1.11-2.9-.29-5.95,1.83-6.77h0c2.12-.81,4.77.89,5.88,3.8l4.47,11.62"/><path class="cls-1" d="M49.28,54.14l.25.63v0c1.12,2.9.3,6-1.82,6.77h0c-2.12.82-4.77-.89-5.89-3.8L40,53"/><line class="cls-2" x1="36.51" y1="31.56" x2="42.66" y2="31.56"/><line class="cls-2" x1="31.94" y1="31.56" x2="33.22" y2="31.56"/><path class="cls-1" d="M50.1,47.82h8.29a2.43,2.43,0,0,0,2.42-2.42V26.79c1.87-1,3-2.26,3-3.64,0-3.24-6.17-5.87-13.77-5.87-6.84,0-12.51,2.13-13.58,4.91"/><path class="cls-2" d="M53.08,27.93c0-3.24-6.16-5.86-13.76-5.86s-13.76,2.62-13.76,5.86c0,1.38,1.12,2.65,3,3.65v18.6A2.42,2.42,0,0,0,31,52.6H47.68a2.43,2.43,0,0,0,2.42-2.42V31.58C52,30.58,53.08,29.31,53.08,27.93Z"/><line class="cls-1" x1="58.03" y1="35" x2="58.03" y2="41.79"/><line class="cls-1" x1="35" y1="37.83" x2="35" y2="37.83"/><line class="cls-1" x1="37.5" y1="44.14" x2="37.5" y2="44.14"/><line class="cls-1" x1="43.31" y1="38.4" x2="43.31" y2="38.4"/><line class="cls-1" x1="46.09" y1="46.32" x2="46.09" y2="46.32"/><line class="cls-1" x1="35" y1="25.86" x2="35" y2="25.86"/><line class="cls-1" x1="42.02" y1="25.86" x2="42.02" y2="25.86"/><line class="cls-1" x1="45.02" y1="28.52" x2="45.02" y2="28.52"/><line class="cls-1" x1="53.08" y1="35" x2="53.08" y2="35"/><line class="cls-1" x1="54.61" y1="41.79" x2="54.61" y2="41.79"/><line class="cls-1" x1="32.58" y1="46.32" x2="32.58" y2="46.32"/><line class="cls-1" x1="53.08" y1="21.77" x2="53.08" y2="21.77"/><line class="cls-1" x1="58.03" y1="23.19" x2="58.03" y2="23.19"/></g></g></svg>