<svg xmlns="http://www.w3.org/2000/svg" viewBox="0 0 62.89 63.07"><defs><style>.cls-1,.cls-2{fill:none;stroke-linejoin:round;}.cls-1{stroke:#fdc511;}.cls-2{stroke:#1e66af;}</style></defs><g id="Слой_2" data-name="Слой 2"><g id="Слой_1-2" data-name="Слой 1"><polyline class="cls-1" points="28.62 49.96 28.62 47.1 45.77 47.1 45.77 49.96"/><path class="cls-2" d="M23,55.31V15.55H37.77A13.67,13.67,0,0,0,51.41,1.87V.5H.6V59.33H52.77a9.22,9.22,0,0,0-9.21-9.24H23.06"/><path class="cls-1" d="M37.19,47.11h0A8.12,8.12,0,0,1,29.09,39v-3.5h16.2V39A8.11,8.11,0,0,1,37.19,47.11Z"/><path class="cls-1" d="M45.27,35.48h5.28v.18a5.62,5.62,0,0,1-5.61,5.63h0"/><polyline class="cls-2" points="44.11 14 44.11 23.41 30.81 23.41 30.81 15.55"/><line class="cls-2" x1="44.18" y1="19.71" x2="49.53" y2="19.71"/><path class="cls-2" d="M59.58,22.27l-10-1V18.12l10-1a2.58,2.58,0,0,1,2.81,2.56h0A2.57,2.57,0,0,1,59.58,22.27Z"/><path class="cls-1" d="M16.93,10.72a5.25,5.25,0,1,1-5.25-5.26A5.25,5.25,0,0,1,16.93,10.72Z"/><line class="cls-1" x1="11.68" y1="5.46" x2="11.68" y2="10.72"/><line class="cls-2" y1="62.57" x2="23.56" y2="62.57"/><line class="cls-2" x1="26.75" y1="62.57" x2="30.27" y2="62.57"/><line class="cls-2" x1="34.54" y1="62.57" x2="51.75" y2="62.57"/><line class="cls-2" x1="4.05" y1="44.05" x2="4.05" y2="59.33"/><line class="cls-2" x1="44.08" y1="55.36" x2="51.88" y2="55.36"/><line class="cls-2" x1="52.16" y1="18" x2="52.16" y2="21.42"/><line class="cls-2" x1="18.16" y1="28.15" x2="23.02" y2="28.15"/><line class="cls-2" x1="18.16" y1="34.36" x2="23.02" y2="34.36"/><line class="cls-2" x1="18.16" y1="40.57" x2="23.02" y2="40.57"/><line class="cls-2" x1="15.35" y1="28.15" x2="15.35" y2="28.15"/><line class="cls-2" x1="15.35" y1="34.36" x2="15.35" y2="34.36"/><line class="cls-2" x1="15.35" y1="40.57" x2="15.35" y2="40.57"/><line class="cls-2" x1="4.05" y1="35.48" x2="4.05" y2="40.57"/><path class="cls-2" d="M38.77,23.4v4a1.31,1.31,0,0,1-1.31,1.31h0a1.3,1.3,0,0,1-1.31-1.31v-4"/></g></g></svg>