<svg xmlns="http://www.w3.org/2000/svg" viewBox="0 0 140 140"><defs><style>.cls-1{fill:#4b75a3;}.cls-2{fill:#fff;}</style></defs><g id="Слой_2" data-name="Слой 2"><g id="Слой_1-2" data-name="Слой 1"><circle class="cls-1" cx="70" cy="70" r="70"/><path class="cls-2" d="M99,76.17a110.66,110.66,0,0,1,7.86,7.91,23.35,23.35,0,0,1,2.82,4.06c1.08,2.09.1,4.4-1.78,4.53H96.15a9,9,0,0,1-7.44-3C87.09,88,85.59,86.23,84,84.53a10.7,10.7,0,0,0-2.1-1.87c-1.6-1-3-.72-3.89.94a12.43,12.43,0,0,0-1.24,5.46c-.12,2.75-1,3.48-3.72,3.6-5.91.28-11.52-.61-16.73-3.59A36.84,36.84,0,0,1,45.09,78.52c-6-8.18-10.66-17.17-14.82-26.41-.93-2.08-.25-3.2,2.05-3.24,3.81-.07,7.63-.06,11.45,0a3.35,3.35,0,0,1,3.17,2.38A71.19,71.19,0,0,0,54.7,65.62a12.38,12.38,0,0,0,2.93,3.23c1.36.92,2.39.62,3-.89a10.1,10.1,0,0,0,.67-3,45,45,0,0,0-.19-10.57,4.4,4.4,0,0,0-3.75-4c-1.12-.21-1-.63-.41-1.27a4.21,4.21,0,0,1,3.59-1.78H73.78c2.08.41,2.55,1.34,2.83,3.44V65.41c0,.81.41,3.21,1.87,3.75,1.16.38,1.93-.55,2.64-1.3a45.51,45.51,0,0,0,7.44-11.43c.89-1.81,1.66-3.69,2.41-5.56a2.83,2.83,0,0,1,3-2l12.72,0a7.07,7.07,0,0,1,1.13.06c2.14.37,2.73,1.29,2.07,3.38-1,3.29-3.08,6-5.06,8.77-2.12,2.94-4.39,5.77-6.49,8.72-1.94,2.7-1.78,4.06.62,6.4Z"/></g></g></svg>