<svg xmlns="http://www.w3.org/2000/svg" viewBox="0 0 140 140"><defs><style>.cls-1{fill:#f91600;}.cls-2{fill:#fff;}</style></defs><g id="Слой_2" data-name="Слой 2"><g id="Слой_1-2" data-name="Слой 1"><circle class="cls-1" cx="70" cy="70" r="70"/><path class="cls-2" d="M106.88,46.68c-2.89-3.43-8.22-4.83-18.4-4.83h-37C41.1,41.85,35.68,43.34,32.8,47S30,55.81,30,63.08V76.93C30,91,33.33,98.15,51.52,98.15h37c8.83,0,13.72-1.24,16.89-4.26s4.63-8.18,4.63-17V63.08C110,55.41,109.78,50.13,106.88,46.68ZM81.36,71.91,64.58,80.68A2.58,2.58,0,0,1,60.8,78.4V60.91a2.58,2.58,0,0,1,3.77-2.29l16.78,8.71a2.58,2.58,0,0,1,0,4.58Z"/></g></g></svg>